<svg width="54" height="54" viewBox="0 0 54 54" fill="none" xmlns="http://www.w3.org/2000/svg">
<g clip-path="url(#clip0)">
<path d="M33.4327 12.6571C31.3728 12.6571 29.6331 13.9838 28.9778 15.8213H37.8875C37.2322 13.9838 35.4925 12.6571 33.4327 12.6571V12.6571Z" fill="white"/>
<path d="M28.6864 23.7318C28.6864 26.349 30.8155 28.4781 33.4327 28.4781C36.0499 28.4781 38.179 26.349 38.179 23.7318V18.9855H28.6864V23.7318Z" fill="white"/>
<path d="M33.4329 0.000320435C22.0924 0.000320435 12.8656 9.22712 12.8656 20.5676C12.8656 25.6695 14.744 30.3335 17.8313 33.932L16.1426 35.6208L13.9054 33.3836L1.38846 45.9006C-0.462493 47.7516 -0.462493 50.7612 1.38846 52.6122C3.23751 54.4612 6.24909 54.4631 8.10004 52.6122L20.6171 40.0951L18.3799 37.8579L20.0686 36.1692C23.6672 39.2565 28.3312 41.1349 33.433 41.1349C44.7735 41.1349 54.0003 31.9081 54.0003 20.5676C54.0003 9.22712 44.7734 0.000320435 33.4329 0.000320435V0.000320435ZM44.5076 15.8213H41.1833C41.2876 16.3328 41.3434 16.8617 41.3434 17.4034V18.9855H44.5076V22.1497H41.3434V23.7318C41.3434 24.2735 41.2876 24.8025 41.1833 25.3139H44.5076V28.4781H39.7209C38.2754 30.3876 36.0069 31.6423 33.4329 31.6423C30.859 31.6423 28.5904 30.3876 27.1449 28.4781H22.3582V25.3139H25.6825C25.5782 24.8025 25.5224 24.2735 25.5224 23.7318V22.1497H22.3582V18.9855H25.5224V17.4034C25.5224 16.8617 25.5782 16.3328 25.6825 15.8213H22.3582V12.6571H27.1449C27.7849 11.8116 28.5866 11.1088 29.5094 10.5761C28.9912 9.81556 28.6867 8.89847 28.6867 7.91082H31.8509C31.8509 8.78371 32.5601 9.49291 33.433 9.49291C34.3059 9.49291 35.0151 8.78371 35.0151 7.91082H38.1793C38.1793 8.89847 37.8747 9.81566 37.3566 10.5761C38.2794 11.1088 39.081 11.8115 39.7211 12.6571H44.5078V15.8213H44.5076Z" fill="white"/>
</g>
<defs>
<clipPath id="clip0">
<rect width="54" height="54" fill="white"/>
</clipPath>
</defs>
</svg>
