<svg width="43" height="64" viewBox="0 0 43 64" fill="none" xmlns="http://www.w3.org/2000/svg">
<path d="M10.6709 64C16.5589 64 21.3376 59.2213 21.3376 53.3332V42.6665H10.6709C4.78294 42.6665 0.00427246 47.4452 0.00427246 53.3332C0.00427246 59.2213 4.78294 64 10.6709 64Z" fill="#304FFE"/>
<path d="M0.00427246 32.0001C0.00427246 26.1122 4.78294 21.3335 10.6709 21.3335H21.3376V42.6668H10.6709C4.78294 42.6668 0.00427246 37.8881 0.00427246 32.0001Z" fill="#304FFE"/>
<path d="M0.00427246 10.6667C0.00427246 4.77867 4.78294 0 10.6709 0H21.3376V21.3333H10.6709C4.78294 21.3333 0.00427246 16.5547 0.00427246 10.6667Z" fill="#304FFE"/>
<path d="M21.3376 0H32.0043C37.8923 0 42.671 4.77867 42.671 10.6667C42.671 16.5547 37.8923 21.3333 32.0043 21.3333H21.3376V0Z" fill="#304FFE"/>
<path d="M42.671 32.0001C42.671 37.8881 37.8923 42.6668 32.0043 42.6668C26.1163 42.6668 21.3376 37.8881 21.3376 32.0001C21.3376 26.1122 26.1163 21.3335 32.0043 21.3335C37.8923 21.3335 42.671 26.1122 42.671 32.0001Z" fill="#304FFE"/>
</svg>
