<svg width="64" height="64" viewBox="0 0 64 64" fill="none" xmlns="http://www.w3.org/2000/svg">
<path d="M64 0H0L5.64706 57.2632L32 64L58.3529 57.2632L64 0Z" fill="#304FFE"/>
<path d="M31 6V58L52.2555 52.7837L57 6H31Z" fill="#304FFE"/>
<path d="M31 33.7195V26.4796H47.8261L46.4565 47.2941L31 52V44.3982L39.0217 41.8643L39.6087 33.7195H31ZM48.413 19.2398L49 12H31V19.2398H48.413Z" fill="white"/>
<path d="M31 44.3982V52L17.1099 47.2941L16.4066 37.3394H23.4396L23.7912 41.8643L31 44.3982ZM22.3846 19.2398H31V12H15L16.2308 33.7195H31V26.4796H22.9121L22.3846 19.2398Z" fill="#E8E8E8"/>
</svg>
