<svg width="64" height="64" viewBox="0 0 64 64" fill="none" xmlns="http://www.w3.org/2000/svg">
<path d="M0 64V0H64V64H0Z" fill="#304FFE"/>
<path d="M42.0673 48.1572C43.2884 50.1242 44.6155 52.009 47.4266 52.009C49.7878 52.009 51.0266 50.8452 51.0266 49.2352C51.0266 47.3085 49.7454 46.6243 47.1478 45.5025L45.7237 44.9005C41.6138 43.1715 38.8803 41.005 38.8803 36.4288C38.8803 32.2113 42.1361 29.0017 47.2237 29.0017C50.8466 29.0017 53.4495 30.246 55.3271 33.5045L50.8907 36.3167C49.9148 34.5877 48.8595 33.907 47.2237 33.907C45.5543 33.907 44.4972 34.9517 44.4972 36.3167C44.4972 38.0037 45.5561 38.6862 48.0001 39.731L49.4242 40.333C54.2683 42.3787 57 44.4682 57 49.1652C57 54.2262 52.9695 57 47.559 57C42.2667 57 39.2614 54.3662 37.5885 51.106L42.0673 48.1572ZM21.6217 48.3007C22.5146 49.8862 23.8717 51.106 25.8234 51.106C27.6904 51.106 28.7651 50.3745 28.7651 47.5308V29H34.6468V48.4268C34.6468 54.319 31.2004 57 26.1675 57C21.6199 57 18.3376 53.9445 17 51.106L21.6217 48.3007Z" fill="white"/>
</svg>
