<svg width="54" height="54" viewBox="0 0 54 54" fill="none" xmlns="http://www.w3.org/2000/svg">
<path d="M54 10.125V0H47.5664V6.75H44.4023V0H41.2383V6.75H38.0742V0H34.9102V6.75H31.7461V0H0V10.125H54Z" fill="white"/>
<path d="M17.5078 33.75C18.3815 33.75 19.0898 32.9945 19.0898 32.0625C19.0898 31.1305 18.3815 30.375 17.5078 30.375C16.6341 30.375 15.9258 31.1305 15.9258 32.0625C15.9258 32.9945 16.6341 33.75 17.5078 33.75Z" fill="white"/>
<path d="M36.4922 43.875C37.3659 43.875 38.0742 43.1195 38.0742 42.1875C38.0742 41.2555 37.3659 40.5 36.4922 40.5C35.6185 40.5 34.9102 41.2555 34.9102 42.1875C34.9102 43.1195 35.6185 43.875 36.4922 43.875Z" fill="white"/>
<path d="M0 13.5V54H54V13.5H0ZM44.4023 43.875H40.9469C40.2916 45.835 38.552 47.25 36.4922 47.25C34.4324 47.25 32.6928 45.835 32.0375 43.875H9.59766V40.5H32.0375C32.6928 38.54 34.4324 37.125 36.4922 37.125C38.552 37.125 40.2916 38.54 40.9469 40.5H44.4023V43.875ZM44.4023 33.75H21.9625C21.3072 35.71 19.5676 37.125 17.5078 37.125C15.448 37.125 13.7084 35.71 13.0531 33.75H9.59766V30.375H13.0531C13.7084 28.415 15.448 27 17.5078 27C19.5676 27 21.3072 28.415 21.9625 30.375H44.4023V33.75ZM44.4023 23.625H40.9469C40.2916 25.585 38.552 27 36.4922 27C34.4324 27 32.6928 25.585 32.0375 23.625H9.59766V20.25H32.0375C32.6928 18.29 34.4324 16.875 36.4922 16.875C38.552 16.875 40.2916 18.29 40.9469 20.25H44.4023V23.625Z" fill="white"/>
<path d="M36.4922 23.625C37.3659 23.625 38.0742 22.8695 38.0742 21.9375C38.0742 21.0055 37.3659 20.25 36.4922 20.25C35.6185 20.25 34.9102 21.0055 34.9102 21.9375C34.9102 22.8695 35.6185 23.625 36.4922 23.625Z" fill="white"/>
</svg>
