<svg width="64" height="64" viewBox="0 0 64 64" fill="none" xmlns="http://www.w3.org/2000/svg">
<path d="M51.0505 36.0825C51.3449 36.2994 51.9322 36.3886 52.4502 36.3886C53.1213 36.3886 53.7787 36.2741 54.4216 35.7392C55.0796 35.191 55.527 34.35 55.527 33.0127C55.527 31.7259 54.9953 30.6813 53.9043 30.0699C53.2888 29.7133 52.4921 29.5729 51.5823 29.5729C51.3167 29.5729 51.0505 29.5855 50.8968 29.6494C50.8346 29.6953 50.7904 29.7588 50.7712 29.8301C50.7431 30.0596 50.7431 31.8048 50.7431 32.8367C50.7431 33.894 50.7431 35.3717 50.7712 35.5476C50.785 35.7006 50.8693 35.9693 51.0505 36.0825ZM48.2589 29C48.4963 29 49.4003 29.038 49.8202 29.038C50.6051 29.038 51.1486 29 52.6177 29C53.8487 29 54.8841 29.306 55.6264 29.8916C56.5219 30.6048 57 31.5988 57 32.809C57 34.5283 56.1497 35.5199 55.2935 36.0825C54.4432 36.6687 53.3346 37 51.7543 37C50.9151 37 49.4742 36.9747 48.2707 36.962H48.2543C48.1987 36.8596 48.3577 36.4627 48.4558 36.4524C48.7828 36.4181 48.8692 36.4066 49.0203 36.3494C49.274 36.253 49.3342 36.1337 49.3623 35.7133C49.4042 34.9235 49.3905 33.9807 49.3905 32.9108C49.3905 32.1464 49.4042 30.656 49.3761 30.1843C49.3342 29.7898 49.153 29.688 48.7874 29.6114C48.5281 29.5608 48.2661 29.5224 48.0025 29.4964C47.9744 29.4199 48.1896 29.0747 48.2596 29" fill="#304FFE"/>
<path d="M59.6165 29.6231C59.5638 29.6357 59.4969 29.7633 59.4969 29.827C59.4839 30.2847 59.4709 31.4804 59.4709 32.3068C59.4744 32.3226 59.4825 32.337 59.4942 32.3483C59.506 32.3597 59.5209 32.3674 59.5372 32.3706C59.7093 32.3832 60.1329 32.3964 60.4902 32.3964C60.9936 32.3964 61.2853 32.3321 61.4438 32.2557C61.868 32.0524 62.063 31.6073 62.063 31.1244C62.063 30.0177 61.2686 29.5978 60.0902 29.5978C59.9308 29.5959 59.7715 29.6043 59.6134 29.6231H59.6165ZM62.6197 34.7108C62.6197 33.5915 61.772 32.9558 60.2221 32.9558C60.1564 32.9558 59.6648 32.9426 59.5471 32.9684C59.5075 32.9811 59.4678 33.0063 59.4678 33.0322C59.4678 33.8333 59.4542 35.118 59.4938 35.6269C59.5205 35.8428 59.6796 36.1483 59.8784 36.2374C60.0902 36.3516 60.567 36.3769 60.8983 36.3769C61.8116 36.3769 62.6197 35.8813 62.6197 34.7108V34.7108ZM57.2244 29C57.3439 29 57.6962 29.0379 58.5966 29.0379C59.4443 29.0379 60.1329 29.0126 60.954 29.0126C61.9739 29.0126 63.3777 29.3693 63.3777 30.8441C63.3777 31.5694 62.8476 32.154 62.159 32.4343C62.1194 32.447 62.1194 32.4722 62.159 32.4849C63.1393 32.7254 64 33.3119 64 34.4312C64 35.5246 63.2984 36.2121 62.2785 36.6439C61.6556 36.9116 60.8877 37 60.1063 37C59.5106 37 57.9136 36.9368 57.0262 36.9495C56.9333 36.9116 57.111 36.5044 57.1903 36.4406C57.3936 36.4343 57.5954 36.4036 57.791 36.3492C58.1086 36.2734 58.1464 36.1736 58.186 35.7159C58.2127 35.3213 58.2127 33.9115 58.2127 32.9047C58.2127 31.5309 58.2257 30.6029 58.2127 30.1446C58.199 29.7885 58.0671 29.6736 57.8151 29.6105C57.617 29.572 57.2857 29.5341 57.0213 29.4962C56.9544 29.4324 57.1587 29.0505 57.2244 29" fill="#304FFE"/>
<path d="M10.125 36.9972C10.0903 36.9203 10.0762 36.8371 10.0838 36.7544C10.0812 36.6981 10.0955 36.6423 10.125 36.5927C10.2977 36.5701 10.4688 36.5384 10.6375 36.498C10.8734 36.4447 10.962 36.3278 10.9764 36.0539C11.0151 35.4073 11.017 34.194 11.0032 33.3409V33.3159C11.0032 33.2241 11.0032 33.0993 10.8784 33.0108C10.6588 32.8857 10.4203 32.7901 10.1706 32.7272C10.0582 32.6971 9.99642 32.6438 10.0002 32.5814C10.0039 32.519 10.0744 32.4458 10.218 32.4231C10.6044 32.3868 11.6181 32.1673 12.0157 32C12.057 32.0484 12.0762 32.1093 12.0694 32.1702C12.0694 32.2076 12.0631 32.2473 12.0588 32.2881C12.0475 32.409 12.035 32.5457 12.035 32.6818C12.0375 32.6983 12.045 32.7139 12.0566 32.7268C12.0683 32.7397 12.0837 32.7494 12.1011 32.7547C12.1185 32.7601 12.1371 32.7609 12.155 32.7572C12.1729 32.7534 12.1893 32.7452 12.2023 32.7334C12.9607 32.1934 13.638 32.0006 13.9875 32.0006C14.5605 32.0006 15.0068 32.2496 15.352 32.7618C15.3601 32.7741 15.3715 32.7844 15.3851 32.7917C15.3988 32.7989 15.4142 32.8029 15.43 32.8032C15.4442 32.8031 15.4582 32.7999 15.4707 32.7937C15.4833 32.7876 15.4939 32.7788 15.5018 32.768C16.199 32.2876 16.89 32.0006 17.3513 32.0006C18.4443 32.0006 19.099 32.7442 19.099 33.9892C19.099 34.3471 19.0953 34.8003 19.0915 35.2241C19.0884 35.595 19.0853 35.9433 19.0853 36.1843C19.0853 36.2411 19.1714 36.4044 19.3007 36.4368C19.4604 36.5077 19.6914 36.544 19.9829 36.5893H19.9941C20.0166 36.6608 19.9704 36.9382 19.9255 36.9949C19.8531 36.9949 19.7532 36.9898 19.6284 36.9841C19.4018 36.9739 19.0903 36.9592 18.7283 36.9592C18.0023 36.9592 17.6228 36.9722 17.2602 36.9938C17.2333 36.9115 17.2233 36.6455 17.257 36.5905C17.4064 36.5665 17.5542 36.5349 17.6996 36.4957C17.9305 36.4265 17.9973 36.3313 18.0117 36.0522C18.0173 35.8537 18.0591 34.1078 17.9849 33.6931C17.9162 33.2638 17.5604 32.7606 16.7808 32.7606C16.4918 32.7606 16.0249 32.8701 15.5792 33.177C15.5521 33.2055 15.5368 33.2419 15.5361 33.2796V33.2881C15.5886 33.5116 15.5886 33.7725 15.5886 34.1679C15.5886 34.3948 15.5886 34.6313 15.5854 34.8684C15.5823 35.35 15.5798 35.8043 15.5886 36.1475C15.5886 36.3817 15.744 36.4379 15.8695 36.4827C15.9375 36.4963 15.9943 36.5082 16.0455 36.5196C16.1503 36.5428 16.259 36.5666 16.42 36.5899C16.4439 36.6895 16.4418 36.7929 16.4138 36.8917C16.4079 36.9291 16.3918 36.9646 16.3669 36.9949C15.9637 36.9824 15.5492 36.9711 14.9513 36.9711C14.7703 36.9711 14.4744 36.9784 14.2128 36.9847C14.0019 36.9898 13.8009 36.9949 13.6873 36.9955C13.6587 36.9305 13.6463 36.8605 13.6511 36.7907C13.6447 36.7234 13.6592 36.6558 13.6929 36.5956L13.8533 36.5689C13.9931 36.5462 14.1142 36.5269 14.2278 36.5009C14.4257 36.4441 14.5 36.346 14.515 36.1174C14.5537 35.5837 14.5836 34.0459 14.5006 33.6608C14.3589 33.0431 13.9719 32.7294 13.3496 32.7294C12.9851 32.7294 12.525 32.8888 12.1493 33.1452C12.1129 33.1771 12.0843 33.2155 12.0651 33.258C12.046 33.3004 12.0368 33.3461 12.0382 33.3919C12.0382 33.5752 12.0382 33.7935 12.0382 34.0272C12.0382 34.7992 12.0325 35.7606 12.0531 36.177C12.0656 36.3046 12.1156 36.4566 12.3802 36.5128C12.4383 36.5281 12.5381 36.5428 12.6542 36.5604C12.7216 36.5706 12.7947 36.5814 12.8696 36.5939C12.8936 36.7299 12.8814 36.8691 12.834 37C12.7179 37 12.575 36.9932 12.4114 36.9864C12.1617 36.9767 11.8496 36.9637 11.4957 36.9637C11.0781 36.9637 10.7879 36.9767 10.5544 36.9864C10.3978 36.9938 10.2623 36.9994 10.1269 37" fill="#304FFE"/>
<path d="M23.25 32.5C23.0483 32.4963 22.8499 32.5517 22.6799 32.6594C22.2644 32.9106 22.0522 33.4111 22.0522 34.1472C22.0522 35.5256 22.7482 36.4883 23.7439 36.4883C24.0103 36.4964 24.2701 36.405 24.4718 36.2322C24.7776 35.9844 24.94 35.4783 24.94 34.77C24.94 33.4122 24.2602 32.5 23.2483 32.5H23.25ZM23.4404 37C21.6423 36.9994 21 35.6917 21 34.465C21 33.6089 21.3528 32.9394 22.0483 32.4756C22.5354 32.1759 23.0947 32.0117 23.6677 32C25.0408 32 26 32.98 26 34.3828C26 35.3361 25.6164 36.0889 24.8918 36.5594C24.5441 36.7711 23.9399 36.9994 23.4404 36.9994" fill="#304FFE"/>
<path d="M43.2489 32.4995C43.046 32.4951 42.8464 32.5506 42.6754 32.659C42.2599 32.9101 42.0477 33.4107 42.0477 34.1469C42.0477 35.5254 42.7432 36.4883 43.7394 36.4883C44.0074 36.4974 44.269 36.4057 44.4718 36.2316C44.7776 35.9843 44.94 35.4782 44.94 34.7698C44.94 33.4118 44.2602 32.4995 43.2489 32.4995ZM43.4404 37C41.6406 37 41 35.6904 41 34.4653C41 33.6085 41.3528 32.9395 42.0488 32.4756C42.5357 32.1758 43.0948 32.0115 43.6677 32C45.0408 32 46 32.9801 46 34.3825C46 35.337 45.6164 36.0893 44.8918 36.5594C44.5441 36.7716 43.9399 37 43.4404 37Z" fill="#304FFE"/>
<path d="M37.0463 32.4076C36.497 32.4076 36.1423 32.7964 36.1423 33.3984C36.1423 34.0004 36.4477 34.7153 37.3063 34.7153C37.4542 34.7153 37.7219 34.6561 37.8544 34.5254C38.0539 34.3608 38.1842 34.0203 38.1842 33.6614C38.1842 32.8764 37.7585 32.4076 37.0458 32.4076H37.0463ZM36.9743 36.5601C36.8194 36.5589 36.6668 36.5931 36.5309 36.6595C36.0963 36.9081 35.8951 37.1592 35.8951 37.4465C35.8951 37.7174 36.0126 37.9327 36.2643 38.1241C36.5697 38.3557 36.9809 38.4686 37.5219 38.4686C38.5866 38.4686 39.0638 37.955 39.0638 37.4465C39.0638 37.092 38.8654 36.8549 38.458 36.7207C38.1437 36.6173 37.6189 36.5606 36.9765 36.5606L36.9743 36.5601ZM37.048 39C36.4084 39 35.9478 38.8787 35.5543 38.6073C35.1718 38.3423 35 37.9491 35 37.6777C35.004 37.5026 35.0784 37.3347 35.2095 37.2049C35.3204 37.091 35.5792 36.8788 36.175 36.5089C36.1844 36.5056 36.1925 36.4998 36.1982 36.4922C36.2038 36.4847 36.2068 36.4757 36.2066 36.4667C36.2068 36.4566 36.2032 36.4468 36.1963 36.4389C36.1895 36.4309 36.1798 36.4253 36.1689 36.4229C35.6773 36.2544 35.5293 35.9755 35.485 35.8264C35.485 35.8209 35.4822 35.8124 35.48 35.803C35.4656 35.7438 35.4523 35.6887 35.5415 35.631C35.6102 35.5872 35.7205 35.5286 35.838 35.4664C36.004 35.3841 36.1631 35.291 36.3141 35.1881C36.3226 35.1804 36.3289 35.171 36.3325 35.1607C36.336 35.1504 36.3368 35.1395 36.3346 35.1289C36.3327 35.1184 36.3281 35.1085 36.3212 35.0999C36.3143 35.0912 36.3052 35.0842 36.2947 35.0792C35.5676 34.8605 35.2017 34.3758 35.2017 33.6375C35.1995 33.4067 35.2593 33.1789 35.3762 32.9733C35.493 32.7676 35.6634 32.5903 35.873 32.4564C36.1656 32.2491 36.8994 32 37.375 32H37.4027C37.8916 32.0104 38.1676 32.1024 38.5489 32.2292C38.7658 32.3005 38.9958 32.3343 39.2268 32.3286C39.6314 32.3286 39.8082 32.2133 39.96 32.08C39.9847 32.1403 39.9979 32.2038 39.9988 32.2679C40.0082 32.4215 39.9613 32.5736 39.8653 32.7009C39.7821 32.8038 39.5881 32.8789 39.4097 32.8789C39.3908 32.8789 39.3736 32.8789 39.3542 32.8764C39.2607 32.8699 39.168 32.8561 39.0771 32.8352L39.0317 32.8491C39.0172 32.8685 39.0267 32.8894 39.0383 32.9162C39.0409 32.9214 39.0431 32.9267 39.045 32.9321C39.0774 33.065 39.0994 33.1997 39.1109 33.3353C39.1109 34.1093 38.7712 34.4463 38.4031 34.6959C38.0468 34.9357 37.6234 35.0825 37.1799 35.1199C37.1705 35.1199 37.1245 35.1239 37.0386 35.1309C36.9831 35.1354 36.9105 35.1408 36.9 35.1408H36.8895C36.8096 35.1612 36.6007 35.2502 36.6007 35.4152C36.6007 35.5529 36.6955 35.724 37.1461 35.7543L37.4376 35.7727C38.0329 35.81 38.7756 35.8562 39.1253 35.9626C39.3571 36.0357 39.5573 36.1726 39.6975 36.3537C39.8376 36.5348 39.9104 36.7509 39.9057 36.9712C39.9057 37.6672 39.3559 38.3184 38.4342 38.7171C37.9998 38.9036 37.524 38.9996 37.0424 38.998" fill="#304FFE"/>
<path d="M33.9776 36.5314C33.6679 36.4961 33.4423 36.4604 33.176 36.3541C33.1236 36.3081 33.0892 36.2496 33.0774 36.1863C33.0491 35.8195 33.0491 34.7553 33.0491 34.0574C33.0491 33.4898 32.9366 32.9949 32.6545 32.6386C32.3172 32.2366 31.8391 32 31.2204 32C30.6719 32 29.9407 32.3188 29.3357 32.7566C29.3212 32.7684 29.2285 32.8433 29.2312 32.727C29.2338 32.6107 29.2542 32.3741 29.2667 32.2237C29.2727 32.1836 29.2675 32.1428 29.2515 32.1047C29.2355 32.0666 29.2091 32.0323 29.1746 32.0045C28.7801 32.1722 27.672 32.3959 27.2623 32.43C26.9631 32.4793 26.8875 32.7242 27.2064 32.8086H27.2111C27.4674 32.8685 27.7121 32.9597 27.9377 33.0793C28.0639 33.1621 28.0495 33.2806 28.0495 33.3751C28.0633 34.1675 28.0633 35.3855 28.0219 36.0482C28.0074 36.3082 27.9232 36.4028 27.6977 36.4503L27.7187 36.4441C27.5472 36.4806 27.3733 36.5083 27.1979 36.5269C27.1275 36.5856 27.1275 36.929 27.1979 37C27.3386 37 28.056 36.9648 28.6446 36.9648C29.46 36.9648 29.8822 37 30.0913 37C30.1761 36.9172 30.2037 36.5979 30.1472 36.5269C29.9527 36.5194 29.7595 36.4956 29.5705 36.4559C29.3456 36.4089 29.2897 36.3138 29.2759 36.1013C29.2476 35.5455 29.2476 34.3627 29.2476 33.5586C29.2476 33.3349 29.3173 33.2275 29.4021 33.1671C29.6836 32.954 30.1472 32.8125 30.5555 32.8125C30.9501 32.8125 31.2164 32.9188 31.4104 33.0608C31.678 33.2499 31.776 33.5216 31.8049 33.723C31.8615 34.1703 31.847 35.0712 31.847 35.8514C31.847 36.2775 31.8049 36.3843 31.6221 36.4313C31.538 36.4665 31.3124 36.5023 31.0454 36.5258C30.9613 36.5968 30.9889 36.9279 31.0454 36.9989C31.411 36.9989 31.8345 36.9637 32.452 36.9637C33.2253 36.9637 33.7172 36.9989 33.9145 36.9989C33.9986 36.9161 34.0269 36.6074 33.971 36.5258" fill="#304FFE"/>
<path d="M7.84994 30.3701C6.91228 26.6516 4.69635 25.4288 4.4584 24.9619C4.19647 24.6315 3.93393 24.0442 3.93393 24.0442C3.92901 24.0348 3.92224 24.0171 3.91425 24C3.8872 24.3288 3.87306 24.4569 3.52689 24.7896C2.98828 25.1691 0.23373 27.2455 0.0093084 31.4707C-0.199742 35.4096 3.17704 37.7579 3.63695 38.0573L3.6886 38.0899C3.69167 38.1093 3.83371 39.0292 3.93454 40H4.29177C4.37616 39.3129 4.50219 38.6304 4.66929 37.9557L4.69696 37.9391C4.90102 37.8072 5.0957 37.664 5.27984 37.5103L5.30075 37.4932C6.16493 36.7749 6.85167 35.9016 7.31653 34.9297C7.78139 33.9579 8.01402 32.9091 7.99935 31.8514C7.99505 31.3547 7.94508 30.8593 7.84994 30.3701V30.3701ZM3.89212 35.8329C3.89212 35.8329 3.89212 30.3076 4.09809 30.3076C4.25611 30.3076 4.46147 37.4352 4.46147 37.4352C4.17987 37.4053 3.89212 36.2627 3.89212 35.8329Z" fill="#304FFE"/>
</svg>
