<svg width="30" height="30" viewBox="0 0 30 30" fill="none" xmlns="http://www.w3.org/2000/svg">
<g clip-path="url(#clip0)">
<path d="M24.6429 -1.0252e-05H5.35717C2.39851 -1.0252e-05 3.11136e-05 -2.95868 3.11136e-05 -7.51019e-06V24.6428C3.11136e-05 27.6015 -2.95865 30 1.91927e-05 30H30C32.9587 30 30 27.6015 30 24.6428V-1.0252e-05C30 -2.95868 27.6016 -1.0252e-05 24.6429 -1.0252e-05Z" fill="#304FFE"/>
<path d="M26.7108 3.87858C26.6525 3.74837 26.5728 3.62885 26.475 3.52501C26.3709 3.43037 26.2513 3.35427 26.1215 3.30001C25.9927 3.24511 25.8543 3.21599 25.7143 3.21429H18.2143C17.9302 3.21429 17.6577 3.32718 17.4567 3.52811C17.2558 3.72904 17.1429 4.00156 17.1429 4.28572C17.1429 4.56988 17.2558 4.84241 17.4567 5.04334C17.6577 5.24427 17.9302 5.35715 18.2143 5.35715H23.1322L14.2394 14.2393C14.1389 14.3389 14.0592 14.4574 14.0048 14.588C13.9504 14.7185 13.9224 14.8586 13.9224 15C13.9224 15.1414 13.9504 15.2815 14.0048 15.4121C14.0592 15.5426 14.1389 15.6611 14.2394 15.7607C14.339 15.8611 14.4575 15.9409 14.588 15.9952C14.7186 16.0496 14.8586 16.0776 15.0001 16.0776C15.1415 16.0776 15.2815 16.0496 15.4121 15.9952C15.5427 15.9409 15.6612 15.8611 15.7608 15.7607L24.6429 6.87858V11.7857C24.6429 12.0699 24.7558 12.3424 24.9567 12.5433C25.1577 12.7443 25.4302 12.8572 25.7143 12.8572C25.9985 12.8572 26.271 12.7443 26.472 12.5433C26.6729 12.3424 26.7858 12.0699 26.7858 11.7857V4.28572C26.7875 4.14642 26.762 4.00813 26.7108 3.87858V3.87858Z" fill="white"/>
</g>
<defs>
<clipPath id="clip0">
<rect width="30" height="30" fill="white"/>
</clipPath>
</defs>
</svg>
