<svg width="64" height="64" viewBox="0 0 64 64" fill="none" xmlns="http://www.w3.org/2000/svg">
<path d="M31.6388 51.8875C31.4221 51.8875 31.2199 51.8301 31.0321 51.7296L29.1106 50.5956C28.8217 50.4377 28.9661 50.3803 29.0528 50.3515C29.4429 50.2223 29.5151 50.1936 29.9196 49.964C29.963 49.9353 30.0208 49.9496 30.0641 49.9783L31.5377 50.854C31.5955 50.8827 31.6677 50.8827 31.7111 50.854L37.4754 47.538C37.5332 47.5093 37.5621 47.4518 37.5621 47.3801V40.7624C37.5621 40.6907 37.5332 40.6333 37.4754 40.6045L31.7111 37.3029C31.6533 37.2742 31.581 37.2742 31.5377 37.3029L25.7734 40.6045C25.7156 40.6333 25.6867 40.705 25.6867 40.7624V47.3801C25.6867 47.4375 25.7156 47.5093 25.7734 47.538L27.3481 48.4423C28.2005 48.873 28.735 48.3706 28.735 47.8681V41.3366C28.735 41.2505 28.8072 41.1644 28.9083 41.1644H29.6451C29.7318 41.1644 29.8185 41.2362 29.8185 41.3366V47.8681C29.8185 49.0022 29.1973 49.6625 28.1138 49.6625C27.7815 49.6625 27.5214 49.6625 26.7847 49.3036L25.2677 48.4423C24.8921 48.227 24.6609 47.8251 24.6609 47.3944V40.7768C24.6609 40.3462 24.8921 39.9442 25.2677 39.7289L31.0321 36.4129C31.3932 36.2119 31.8844 36.2119 32.2456 36.4129L38.0099 39.7289C38.3855 39.9442 38.6167 40.3462 38.6167 40.7768V47.3944C38.6167 47.8251 38.3855 48.227 38.0099 48.4423L32.2456 51.7583C32.0578 51.8445 31.8411 51.8875 31.6388 51.8875ZM33.4158 47.337C30.8876 47.337 30.3675 46.1886 30.3675 45.2125C30.3675 45.1263 30.4397 45.0402 30.5409 45.0402H31.2921C31.3788 45.0402 31.451 45.0976 31.451 45.1838C31.5666 45.9446 31.8989 46.3178 33.4302 46.3178C34.6438 46.3178 35.1639 46.0451 35.1639 45.3991C35.1639 45.0259 35.0194 44.7531 33.1269 44.5665C31.5521 44.4086 30.5697 44.0641 30.5697 42.8152C30.5697 41.6525 31.5521 40.9634 33.1991 40.9634C35.0483 40.9634 35.9585 41.595 36.074 42.9731C36.074 43.0162 36.0596 43.0592 36.0307 43.1023C36.0018 43.131 35.9585 43.1597 35.9151 43.1597H35.1639C35.0916 43.1597 35.0194 43.1023 35.005 43.0305C34.8316 42.241 34.3837 41.9826 33.1991 41.9826C31.87 41.9826 31.7111 42.442 31.7111 42.7865C31.7111 43.2028 31.8989 43.332 33.6903 43.5617C35.4673 43.7913 36.3052 44.1215 36.3052 45.356C36.2907 46.6193 35.2506 47.337 33.4158 47.337Z" fill="#304FFE"/>
<path d="M13.7535 26.0056C13.7535 25.7472 13.6091 25.5032 13.3779 25.374L7.25241 21.8714C7.15128 21.8139 7.0357 21.7852 6.92013 21.7709H6.86234C6.74676 21.7709 6.63119 21.8139 6.53006 21.8714L0.404551 25.374C0.1734 25.5032 0.0289307 25.7472 0.0289307 26.0056L0.0433776 35.4224C0.0433776 35.5516 0.115612 35.6808 0.231188 35.7382C0.346764 35.81 0.491233 35.81 0.592362 35.7382L4.23299 33.6711C4.46414 33.5419 4.60861 33.2979 4.60861 33.0395V28.6325C4.60861 28.3741 4.75308 28.1301 4.98424 28.0009L6.53006 27.1109C6.64564 27.0391 6.77566 27.0104 6.90568 27.0104C7.0357 27.0104 7.16573 27.0391 7.26685 27.1109L8.81268 28.0009C9.04383 28.1301 9.1883 28.3741 9.1883 28.6325V33.0395C9.1883 33.2979 9.33277 33.5419 9.56392 33.6711L13.2046 35.7382C13.3201 35.81 13.4646 35.81 13.5802 35.7382C13.6957 35.6808 13.768 35.5516 13.768 35.4224L13.7535 26.0056Z" fill="#304FFE"/>
<path d="M43.1964 13.0431C43.0809 12.9856 42.9364 12.9856 42.8353 13.0431C42.7197 13.1148 42.6475 13.2297 42.6475 13.3589V22.6896C42.6475 22.7757 42.6041 22.8618 42.5174 22.9193C42.4308 22.9623 42.3441 22.9623 42.2574 22.9193L40.726 22.0436C40.4949 21.9144 40.2204 21.9144 39.9892 22.0436L33.8637 25.5606C33.6326 25.6898 33.4881 25.9338 33.4881 26.1922V33.2117C33.4881 33.4701 33.6326 33.7142 33.8637 33.8434L39.9892 37.3603C40.2204 37.4895 40.4949 37.4895 40.726 37.3603L46.8515 33.8434C47.0827 33.7142 47.2271 33.4701 47.2271 33.2117V15.7131C47.2271 15.4403 47.0827 15.1963 46.8515 15.0671L43.1964 13.0431ZM42.633 30.9006C42.633 30.9724 42.6041 31.0298 42.5463 31.0585L40.4515 32.2643C40.3937 32.293 40.3215 32.293 40.2637 32.2643L38.1689 31.0585C38.1111 31.0298 38.0822 30.958 38.0822 30.9006V28.489C38.0822 28.4172 38.1111 28.3598 38.1689 28.3311L40.2637 27.1253C40.3215 27.0965 40.3937 27.0965 40.4515 27.1253L42.5463 28.3311C42.6041 28.3598 42.633 28.4316 42.633 28.489V30.9006Z" fill="#304FFE"/>
<path d="M63.5811 28.4316C63.8122 28.3024 63.9423 28.0583 63.9423 27.8V26.0917C63.9423 25.8333 63.7978 25.5893 63.5811 25.4601L57.4989 21.9575C57.2678 21.8283 56.9933 21.8283 56.7621 21.9575L50.6366 25.4745C50.4055 25.6036 50.261 25.8477 50.261 26.1061V33.1256C50.261 33.384 50.4055 33.6281 50.6366 33.7573L56.7188 37.2024C56.9499 37.3316 57.2244 37.3316 57.4411 37.2024L61.1251 35.164C61.2407 35.1066 61.3129 34.9774 61.3129 34.8482C61.3129 34.719 61.2407 34.5898 61.1251 34.5324L54.9707 31.0155C54.8551 30.9437 54.7829 30.8288 54.7829 30.6996V28.5033C54.7829 28.3741 54.8551 28.245 54.9707 28.1875L56.8921 27.0966C57.0077 27.0248 57.1522 27.0248 57.2678 27.0966L59.1892 28.1875C59.3048 28.2593 59.377 28.3741 59.377 28.5033V30.2259C59.377 30.3551 59.4493 30.4843 59.5648 30.5417C59.6804 30.6135 59.8249 30.6135 59.9404 30.5417L63.5811 28.4316Z" fill="#304FFE"/>
<path d="M57.0366 28.1014C57.08 28.0727 57.1378 28.0727 57.1811 28.1014L58.3513 28.7761C58.3946 28.8048 58.4235 28.8479 58.4235 28.9053V30.2546C58.4235 30.3121 58.3946 30.3551 58.3513 30.3838L57.1811 31.0585C57.1378 31.0872 57.08 31.0872 57.0366 31.0585L55.8664 30.3838C55.8231 30.3551 55.7942 30.3121 55.7942 30.2546V28.9053C55.7942 28.8479 55.8231 28.8048 55.8664 28.7761L57.0366 28.1014Z" fill="#304FFE"/>
<mask id="mask0" mask-type="alpha" maskUnits="userSpaceOnUse" x="16" y="21" width="15" height="17">
<path d="M23.9964 21.9862C23.7653 21.857 23.4908 21.857 23.2596 21.9862L17.1775 25.4744C16.9463 25.6036 16.8163 25.8477 16.8163 26.106V33.0969C16.8163 33.3553 16.9608 33.5993 17.1775 33.7285L23.2596 37.2167C23.4908 37.3459 23.7653 37.3459 23.9964 37.2167L30.0786 33.7285C30.3097 33.5993 30.4398 33.3553 30.4398 33.0969V26.106C30.4398 25.8477 30.2953 25.6036 30.0786 25.4744L23.9964 21.9862Z" fill="white"/>
</mask>
<g mask="url(#mask0)">
<path d="M23.9964 21.9862C23.7653 21.857 23.4908 21.857 23.2596 21.9862L17.1775 25.4744C16.9463 25.6036 16.8163 25.8477 16.8163 26.106V33.0969C16.8163 33.3553 16.9608 33.5993 17.1775 33.7285L23.2596 37.2167C23.4908 37.3459 23.7653 37.3459 23.9964 37.2167L30.0786 33.7285C30.3097 33.5993 30.4398 33.3553 30.4398 33.0969V26.106C30.4398 25.8477 30.2953 25.6036 30.0786 25.4744L23.9964 21.9862Z" fill="#304FFE"/>
<path d="M30.093 25.4744L23.982 21.9862C23.9242 21.9575 23.8519 21.9288 23.7941 21.9144L16.9463 33.5706C17.0041 33.6424 17.0763 33.6998 17.1485 33.7429L23.2596 37.2311C23.433 37.3316 23.6352 37.3603 23.823 37.3029L30.2519 25.618C30.2086 25.5605 30.1508 25.5175 30.093 25.4744Z" fill="#304FFE"/>
<path fill-rule="evenodd" clip-rule="evenodd" d="M30.1075 33.7285C30.2808 33.628 30.4108 33.4558 30.4686 33.2692L23.7652 21.9001C23.5919 21.8713 23.4041 21.8857 23.2451 21.9862L17.1774 25.4601L23.7219 37.3173C23.8086 37.3029 23.9097 37.2742 23.9964 37.2311L30.1075 33.7285Z" fill="#304FFE"/>
<path fill-rule="evenodd" clip-rule="evenodd" d="M30.1075 33.7285L24.0109 37.2168C23.9242 37.2598 23.8375 37.2885 23.7364 37.3029L23.852 37.5182L30.6131 33.628V33.5419L30.4398 33.2548C30.4109 33.4558 30.2809 33.628 30.1075 33.7285Z" fill="#304FFE"/>
<path fill-rule="evenodd" clip-rule="evenodd" d="M30.1075 33.7285L24.0109 37.2168C23.9242 37.2598 23.8375 37.2885 23.7364 37.3029L23.852 37.5182L30.6131 33.628V33.5419L30.4398 33.2548C30.4109 33.4558 30.2809 33.628 30.1075 33.7285Z" fill="#304FFE"/>
</g>
</svg>
