<svg width="64" height="64" viewBox="0 0 64 64" fill="none" xmlns="http://www.w3.org/2000/svg">
<path d="M32 26.375C28.8983 26.375 26.375 28.8983 26.375 32C26.375 35.1017 28.8983 37.625 32 37.625C35.1017 37.625 37.625 35.1017 37.625 32C37.625 28.8983 35.1017 26.375 32 26.375ZM33.875 33.875H30.125V30.125H33.875V33.875Z" fill="#304FFE"/>
<path d="M48.875 44.409V37.625H52.625V42.091L61.5404 46.486L64 44.0264V34.9736L62.9014 33.875H52.625V30.125H62.9014L64 29.0264V19.9736L61.5406 17.5142L52.625 21.909V26.375H48.875V19.591L60.125 13.9665V12.4736L51.5264 3.875H50.0336L44.4091 15.125H37.625V11.375H42.091L46.4857 2.45937L44.0264 0H34.9736L33.875 1.09862V11.375H30.125V1.09862L29.0264 0H19.9736L17.5142 2.45937L21.909 11.375H26.375V15.125H19.591L13.9665 3.875H12.4736L3.875 12.4736V13.9655L15.125 19.591V26.375H11.375V21.909L2.46 17.5135L0 19.9736V29.0264L1.09862 30.125H11.375V33.875H1.09862L0 34.9736V44.0264L2.45937 46.4857L11.375 42.091V37.625H15.125V44.409L3.875 50.0335V51.5262L12.4736 60.125H13.9664L19.5909 48.875H26.375V52.625H21.909L17.5142 61.5406L19.9736 64H29.0264L30.125 62.9014V48.875H33.875V62.9014L34.9736 64H44.0264L46.4857 61.5406L42.091 52.625H37.625V48.875H44.409L50.0335 60.125H51.5262L60.125 51.5264V50.0336L48.875 44.409ZM45.125 33.875H41.1852C40.9417 35.0697 40.465 36.1785 39.8131 37.1618L42.6074 39.956L39.956 42.6074L37.1618 39.8131C36.1785 40.465 35.0697 40.9417 33.875 41.1852V45.125H30.125V41.1852C28.9303 40.9417 27.8215 40.465 26.8382 39.8131L24.044 42.6074L21.3926 39.956L24.1869 37.1618C23.535 36.1785 23.0583 35.0697 22.8148 33.875H18.875V30.125H22.8148C23.0583 28.9303 23.535 27.8215 24.1869 26.8382L21.3926 24.044L24.044 21.3926L26.8382 24.1869C27.8215 23.535 28.9303 23.0583 30.125 22.8148V18.875H33.875V22.8148C35.0697 23.0583 36.1785 23.535 37.1618 24.1869L39.956 21.3926L42.6074 24.044L39.8131 26.8382C40.465 27.8215 40.9417 28.9303 41.1852 30.125H45.125V33.875Z" fill="#304FFE"/>
</svg>
