<svg width="54" height="54" viewBox="0 0 54 54" fill="none" xmlns="http://www.w3.org/2000/svg">
<path d="M12.7617 25.3125C12.7617 24.5546 12.4199 24.3504 11.1797 21.9358C9.93663 24.356 9.59766 24.555 9.59766 25.3125C9.59766 26.2435 10.3068 27 11.1797 27C12.0525 27 12.7617 26.2435 12.7617 25.3125Z" fill="white"/>
<path d="M12.7617 32.0625C12.7617 31.1314 12.0525 30.375 11.1797 30.375C10.3068 30.375 9.59766 31.1314 9.59766 32.0625V54H12.7617V32.0625Z" fill="white"/>
<path d="M54 10.125V0H47.5664V6.75H44.4023V0H41.2383V6.75H38.0742V0H34.9102V6.75H31.7461V0H0V10.125H54Z" fill="white"/>
<path d="M0 13.5V54H6.43359V32.0625C6.43359 30.7612 6.90905 29.5852 7.668 28.6875C6.90905 27.7897 6.43359 26.6138 6.43359 25.3125C6.43359 24.4276 6.65139 23.5541 7.06546 22.7862L11.1797 15.1892L15.2923 22.7829C15.708 23.5541 15.9258 24.4276 15.9258 25.3125C15.9258 26.6138 15.4503 27.7897 14.6914 28.6875C15.4503 29.5852 15.9258 30.7612 15.9258 32.0625V54H19.0898V16.875H34.9102V54H38.08L38.1561 31.5286L42.8203 16.6014L47.5664 32.0625V54H54V13.5H0Z" fill="white"/>
<path d="M31.7461 20.25H22.2539V23.625H25.418V27H22.2539V30.375H25.418V33.75H22.2539V37.125H25.418V40.5H22.2539V43.875H25.418V47.25H22.2539V54H31.7461V20.25Z" fill="white"/>
<path d="M41.851 30.375H43.7895L42.8202 27.2736L41.851 30.375Z" fill="white"/>
<path d="M41.2383 33.75H44.4023V54H41.2383V33.75Z" fill="white"/>
</svg>
