<svg width="64" height="64" viewBox="0 0 64 64" fill="none" xmlns="http://www.w3.org/2000/svg">
<g clip-path="url(#clip0)">
<path d="M47.9899 46.59C48.4117 43.1975 48.2849 42.7025 50.8984 43.25L51.5634 43.3075C53.574 43.395 56.203 42.995 57.7737 42.3025C61.0988 40.8125 63.0706 38.3225 59.7921 38.9775C52.3139 40.4675 51.7705 38.02 51.7705 38.02C59.6705 26.695 62.9748 12.32 60.1207 8.80251C52.3475 -0.797493 38.8893 3.74251 38.6642 3.86251L38.5917 3.87501C37.1168 3.57501 35.4866 3.40001 33.5976 3.37501C30.213 3.32501 27.6461 4.23251 25.695 5.66001C25.695 5.66001 1.6897 -3.89499 2.80496 17.6775C3.04302 22.2675 9.6104 52.4275 17.4509 43.3025C20.3205 39.9675 23.0893 37.15 23.0893 37.15C24.4607 38.0325 26.109 38.4825 27.835 38.32L27.9695 38.21C27.9297 38.6421 27.948 39.0774 28.0239 39.505C26.0055 41.685 26.6007 42.0675 22.564 42.87C18.4808 43.6825 20.8821 45.13 22.445 45.51C24.3443 45.97 28.7381 46.62 31.7087 42.605L31.5896 43.0625C32.3814 43.675 32.3271 47.4625 32.4435 50.1675C32.56 52.8725 32.7437 55.4 33.3156 56.8875C33.8874 58.375 34.5576 62.2125 39.8622 61.1375C44.2948 60.22 47.6846 58.8975 47.9951 46.6125" fill="#304FFE"/>
<path d="M47.9899 46.59C48.4117 43.1975 48.2849 42.7025 50.8984 43.25L51.5634 43.3075C53.574 43.395 56.203 42.995 57.7737 42.3025C61.0988 40.8125 63.0706 38.3225 59.7921 38.9775C52.3139 40.4675 51.7705 38.02 51.7705 38.02C59.6705 26.695 62.9748 12.32 60.1207 8.80251C52.3475 -0.797493 38.8893 3.74251 38.6642 3.86251L38.5917 3.87501C37.1168 3.57501 35.4866 3.40001 33.5976 3.37501C30.213 3.32501 27.6461 4.23251 25.695 5.66001C25.695 5.66001 1.6897 -3.89499 2.80496 17.6775C3.04302 22.2675 9.6104 52.4275 17.4509 43.3025C20.3205 39.9675 23.0893 37.15 23.0893 37.15C24.4607 38.0325 26.109 38.4825 27.835 38.32L27.9695 38.21C27.9297 38.6421 27.948 39.0774 28.0239 39.505C26.0055 41.685 26.6007 42.0675 22.564 42.87C18.4808 43.6825 20.8821 45.13 22.445 45.51C24.3443 45.97 28.7381 46.62 31.7087 42.605L31.5896 43.0625C32.3814 43.675 32.3271 47.4625 32.4435 50.1675C32.56 52.8725 32.7437 55.4 33.3156 56.8875C33.8874 58.375 34.5576 62.2125 39.8622 61.1375C44.2948 60.22 47.6846 58.8975 47.9951 46.6125" stroke="#304FFE" stroke-width="5.3725"/>
<path d="M59.7689 39C52.2907 40.49 51.7473 38.0425 51.7473 38.0425C59.6472 26.7175 62.9516 12.3425 60.1001 8.82499C52.3269 -0.775012 38.8687 3.76749 38.6436 3.88499L38.5711 3.89749C36.9273 3.57883 35.2561 3.41058 33.5796 3.39499C30.195 3.34499 27.6281 4.25249 25.677 5.67999C25.677 5.67999 1.66909 -3.87501 2.78694 17.6975C3.025 22.2875 9.59238 52.4475 17.4329 43.3225C20.3206 39.9675 23.0894 37.15 23.0894 37.15C24.4608 38.0325 26.1091 38.4825 27.8351 38.32L27.9696 38.21C27.9301 38.6421 27.9484 39.0774 28.024 39.505C26.0056 41.685 26.6008 42.0675 22.5641 42.87C18.4808 43.6825 20.8822 45.13 22.4451 45.51C24.3444 45.97 28.7382 46.62 31.7087 42.605L31.5897 43.0625C32.3815 43.675 32.9353 47.045 32.8421 50.1C32.749 53.155 32.6869 55.25 33.3079 56.89C33.9289 58.53 34.5499 62.215 39.8546 61.14C44.2872 60.2225 46.5824 57.84 46.9058 53.875C47.1335 51.055 47.6459 51.47 47.6821 48.95L48.0961 47.755C48.5697 43.93 48.1738 42.6975 50.9037 43.2725L51.5687 43.33C53.5793 43.4175 56.2109 43.0175 57.7531 42.325C61.0782 40.835 63.05 38.345 59.7715 39H59.7689Z" fill="#304FFE"/>
<path d="M38.6412 3.7675C37.8132 4.0175 52.0036 -1.245 60.0718 8.7125C62.9182 12.23 59.619 26.605 51.719 37.93M32.0272 41.1675C31.8202 48.2825 32.079 55.4475 32.7983 57.1675C33.5177 58.8875 35.0625 62.2925 40.3697 61.1975C44.8023 60.28 46.417 58.5025 47.1156 54.58L48.7536 42.0375L32.0272 41.1675ZM25.6669 5.5C25.6669 5.5 1.64343 -3.99 2.76129 17.5825C2.99935 22.1725 9.56672 52.3325 17.4072 43.2075C20.2691 39.875 22.8567 37.2675 22.8567 37.2675L25.6669 5.5Z" stroke="white" stroke-width="1.79" stroke-linecap="round" stroke-linejoin="round"/>
<path d="M51.7217 37.925C51.7217 37.925 52.2392 40.375 59.7433 38.88C63.0218 38.225 61.0474 40.715 57.7249 42.205C54.9976 43.43 48.8805 43.7425 48.7796 42.055C48.5208 37.6925 51.9985 39.0175 51.7475 37.925C51.5198 36.94 49.9621 35.975 48.9374 33.565C48.0395 31.465 36.6203 15.34 52.1046 17.7325C52.6739 17.62 48.068 3.48249 33.5773 3.27749C19.0866 3.07249 19.5446 20.49 19.5446 20.49" stroke="white" stroke-width="1.79" stroke-linecap="round" stroke-linejoin="bevel"/>
<path d="M27.9696 39.42C25.9512 41.6 26.5464 41.9825 22.5097 42.785C18.4264 43.5975 20.8277 45.045 22.3907 45.425C24.29 45.885 28.6837 46.535 31.6543 42.5175C32.56 41.2925 31.6492 39.3425 30.4071 38.8475C29.8068 38.6075 29.0046 38.3075 27.9747 39.4225L27.9696 39.42Z" stroke="white" stroke-width="1.79" stroke-linejoin="round"/>
<path d="M27.8404 39.3825C27.6334 38.1 28.2751 36.5775 28.9608 34.7925C29.9907 32.1175 32.3661 29.4425 30.4668 20.95C29.0514 14.625 19.5471 19.6325 19.5471 20.49C19.5471 21.3475 19.9766 24.84 19.3918 28.9025C18.6233 34.2075 22.8851 38.6925 27.7912 38.235" stroke="white" stroke-width="1.79" stroke-linecap="round" stroke-linejoin="round"/>
<path d="M25.5789 20.3625C25.5349 20.655 26.1352 21.4375 26.9141 21.5425C27.693 21.6475 28.358 21.0375 28.402 20.7425C28.446 20.4475 27.8456 20.1275 27.0668 20.0225C26.2879 19.9175 25.6177 20.0725 25.5789 20.3625V20.3625Z" fill="white" stroke="white" stroke-width="0.5975"/>
<path d="M49.2919 19.765C49.3333 20.0575 48.7355 20.84 47.9567 20.945C47.1778 21.05 46.5076 20.44 46.4688 20.145C46.43 19.85 47.0251 19.53 47.804 19.425C48.5829 19.32 49.2531 19.475 49.2919 19.765Z" fill="white" stroke="white" stroke-width="0.2975"/>
<path d="M52.0752 17.7375C52.2045 20.0375 51.5631 21.6 51.4804 24.0475C51.3614 27.6025 53.2339 31.6725 50.4122 35.7475" stroke="white" stroke-width="1.79" stroke-linecap="round" stroke-linejoin="round"/>
</g>
<defs>
<clipPath id="clip0">
<rect width="64" height="64" fill="white"/>
</clipPath>
</defs>
</svg>
