<svg width="64" height="64" viewBox="0 0 64 64" fill="none" xmlns="http://www.w3.org/2000/svg">
<g clip-path="url(#clip0)">
<path d="M63.7393 36.0758C64.5455 29.7982 63.472 23.4225 60.6545 17.755C57.837 12.0876 53.4022 7.38288 47.9108 4.23592C42.4195 1.08897 36.1182 -0.358884 29.804 0.0754555C23.4897 0.509795 17.4461 2.80682 12.4373 6.67604C7.42861 10.5453 3.67974 15.8129 1.66485 21.8128C-0.350036 27.8127 -0.540453 34.2753 1.11768 40.3834C2.77582 46.4915 6.20803 51.9707 10.9803 56.1281C15.7525 60.2855 21.6504 62.9344 27.9282 63.7398C36.3454 64.8196 44.8469 62.5117 51.5626 57.3238C58.2784 52.1359 62.6584 44.4929 63.7393 36.0758Z" fill="#304FFE"/>
<path d="M44 19.7307L29.9752 35L26 30.6756C39.8085 15.6489 41.1791 16.9709 44 19.7307Z" fill="white"/>
<path d="M30.1705 35C30.1281 34.9998 30.0861 34.9905 30.047 34.9727C30.0079 34.9548 29.9725 34.9288 29.9428 34.896L26.0933 30.7371C26.0335 30.6722 26 30.5844 26 30.4928C26 30.4012 26.0335 30.3134 26.0933 30.2485C39.6306 15.6231 41.0549 17.0059 43.8939 19.7611C43.9264 19.7928 43.9525 19.8312 43.9707 19.8741C43.9889 19.917 43.9988 19.9635 43.9998 20.0107C44.0013 20.058 43.9939 20.1052 43.9779 20.1493C43.9619 20.1934 43.9377 20.2335 43.9068 20.2671L30.3951 34.896C30.3359 34.9613 30.2551 34.9987 30.1705 35ZM26.7926 30.4945L30.1705 34.1544L43.2299 20.0453C40.8593 17.7822 39.2489 17.0787 26.7926 30.5119V30.4945Z" fill="#304FFE"/>
<path d="M33.2778 38L29 34.3524L44.6592 21C48.8738 24.5969 42.6243 30.461 33.2778 38Z" fill="white"/>
<path d="M33.4544 38H33.4366C33.3466 37.993 33.2621 37.9555 33.1982 37.8942L29.1032 33.9701C29.0382 33.9047 29.0013 33.8181 29 33.7278C28.9997 33.6829 29.0087 33.6384 29.0264 33.5968C29.0441 33.5552 29.0702 33.5174 29.1032 33.4855L44.1066 19.0992C44.1732 19.0357 44.2634 19 44.3574 19C44.4514 19 44.5416 19.0357 44.6082 19.0992C45.0574 19.5085 45.413 20.0029 45.6524 20.5509C45.8919 21.099 46.01 21.6888 45.9993 22.2829C45.9424 26.0672 41.4489 30.8751 33.6999 37.9045C33.634 37.9654 33.546 37.9996 33.4544 38ZM29.861 33.7278C32.1558 35.9321 33.0844 36.8193 33.4615 37.181C39.4529 31.7214 45.2308 26.1286 45.2878 22.2761C45.3118 21.3754 44.9758 20.5001 44.3485 19.8295L29.861 33.7278Z" fill="#304FFE"/>
<path d="M26.2642 29.0464L27.9762 32.9365C27.9866 32.9606 27.994 32.9906 27.9976 33.0235C28.0012 33.0563 28.0008 33.0907 27.9964 33.1231C27.9921 33.1554 27.984 33.1845 27.973 33.2073C27.962 33.23 27.9485 33.2456 27.9339 33.2523L24.4034 34.9823C24.3332 35.0175 24.26 34.9999 24.1945 34.9323C24.1291 34.8646 24.0752 34.7505 24.0407 34.6071C24.0062 34.4637 23.9931 34.2987 24.0034 34.137C24.0137 33.9752 24.0467 33.8254 24.0976 33.71L26.1556 29.0464C26.1706 29.0165 26.1899 29 26.2099 29C26.2299 29 26.2492 29.0165 26.2642 29.0464Z" fill="white"/>
<path d="M24.6038 36C24.484 35.9993 24.367 35.9267 24.2676 35.7914C24.1682 35.656 24.0909 35.4641 24.0454 35.2397C23.9999 35.0154 23.9883 34.7688 24.012 34.5311C24.0358 34.2934 24.0938 34.0753 24.1788 33.9044L26.505 29.1905C26.5658 29.0685 26.6479 29 26.7335 29C26.8191 29 26.9012 29.0685 26.962 29.1905L28.9043 33.1272C28.9457 33.2096 28.9752 33.3131 28.9898 33.4268C29.0043 33.5405 29.0033 33.66 28.9869 33.7726C28.9705 33.8853 28.9392 33.9867 28.8965 34.0662C28.8538 34.1456 28.8012 34.2 28.7444 34.2236L24.734 35.9722C24.6912 35.9906 24.6476 35.9999 24.6038 36ZM26.7335 30.0371L24.501 34.5567C24.4771 34.6021 24.4617 34.6626 24.4571 34.7282C24.4525 34.7938 24.4591 34.8605 24.4758 34.9175C24.4901 34.9766 24.5141 35.0237 24.5438 35.0508C24.5734 35.0778 24.6068 35.083 24.6381 35.0655L28.4062 33.4233L26.7335 30.0371Z" fill="#304FFE"/>
<path d="M52 12.8129C51.0461 11.9725 49.8547 11.3936 48.5606 11.1417C47.2666 10.8898 45.9215 10.975 44.6774 11.3876C43.4334 11.8002 42.3402 12.5238 41.5213 13.4765C40.7024 14.4292 40.1906 15.573 40.0438 16.7786C39.897 17.9841 40.121 19.2033 40.6905 20.2982C41.26 21.3931 42.1522 22.32 43.2663 22.9741C44.3804 23.6282 45.6719 23.9833 46.9947 23.9994C48.3175 24.0155 49.6188 23.6919 50.7514 23.0651L45.7832 18.5135L52 12.8129Z" fill="white"/>
<path d="M47.0149 24C45.8673 24.0003 44.7373 23.7397 43.7237 23.2408C42.7102 22.742 41.8443 22.0202 41.2019 21.1389C40.5595 20.2575 40.1602 19.2435 40.0391 18.1858C39.9181 17.128 40.0789 16.0589 40.5075 15.0723C40.9361 14.0856 41.6194 13.2115 42.4974 12.5266C43.3754 11.8418 44.4213 11.3671 45.5434 11.1442C46.6655 10.9214 47.8294 10.9572 48.9331 11.2485C50.0367 11.5398 51.0464 12.0777 51.8735 12.815C51.9128 12.8497 51.9442 12.8913 51.9659 12.9374C51.9876 12.9835 51.9992 13.0332 52 13.0835C52.0008 13.1339 51.9908 13.1839 51.9705 13.2307C51.9501 13.2774 51.9199 13.3199 51.8816 13.3557L46.403 18.4529L50.7394 22.4686C50.7829 22.5094 50.8158 22.5589 50.8356 22.6133C50.8553 22.6677 50.8615 22.7255 50.8536 22.7824C50.8462 22.8398 50.8247 22.8949 50.7908 22.9434C50.7569 22.9919 50.7114 23.0326 50.6578 23.0622C49.5589 23.6777 48.2989 24.0021 47.0149 24ZM47.0149 11.7714C46.0837 11.7721 45.1647 11.9676 44.3264 12.3435C43.4882 12.7194 42.7523 13.2659 42.1738 13.9422C41.5952 14.6185 41.1889 15.4072 40.9851 16.2495C40.7814 17.0917 40.7854 17.9657 40.997 18.8062C41.2086 19.6468 41.6222 20.4322 42.207 21.1039C42.7919 21.7756 43.5328 22.3162 44.3745 22.6853C45.2162 23.0545 46.137 23.2428 47.0681 23.236C47.9993 23.2292 48.9168 23.0277 49.7522 22.6463L45.5177 18.7176C45.4409 18.6477 45.3969 18.5526 45.3953 18.4529C45.3956 18.4028 45.4065 18.3534 45.4275 18.3073C45.4485 18.2612 45.4792 18.2194 45.5177 18.1844L51.0005 13.1024C49.883 12.2393 48.4735 11.7681 47.019 11.7714H47.0149Z" fill="#304FFE"/>
<path d="M51.2701 12.0776L51.1791 12L46 17.0043L50.1301 21C50.5443 20.7667 50.9272 20.4848 51.2701 20.1607C51.8185 19.6301 52.2536 19 52.5504 18.3066C52.8472 17.6131 53 16.8698 53 16.1191C53 15.3685 52.8472 14.6251 52.5504 13.9317C52.2536 13.2382 51.8185 12.6082 51.2701 12.0776Z" fill="white"/>
<path d="M50.0781 21C50.0346 21.0002 49.9915 20.992 49.9512 20.9757C49.911 20.9594 49.8744 20.9355 49.8435 20.9051L46.0991 17.196C46.0369 17.1356 46.0012 17.0533 46 16.967C46.0002 16.9238 46.009 16.881 46.0261 16.8411C46.0431 16.8012 46.0679 16.7651 46.0991 16.7348L50.782 12.0935C50.8438 12.0336 50.9269 12 51.0134 12C51.0999 12 51.1829 12.0336 51.2447 12.0935L51.3306 12.1687C51.9422 12.7712 52.4067 13.504 52.6888 14.3111C52.9708 15.1183 53.0629 15.9785 52.958 16.8262C52.8531 17.6739 52.5541 18.4867 52.0836 19.2027C51.6132 19.9186 50.9837 20.5188 50.2434 20.9575C50.193 20.9857 50.136 21.0004 50.0781 21ZM46.8163 16.967L50.1211 20.2575C50.3871 20.08 50.636 19.8785 50.8647 19.6557C51.7791 18.7506 52.3052 17.5311 52.3336 16.2515C52.3619 14.9719 51.8902 13.7308 51.0167 12.7869L46.8163 16.967Z" fill="#304FFE"/>
<path d="M43.4291 21.5893C43.0696 21.2119 42.5829 21 42.0754 21C41.568 21 41.0812 21.2119 40.7217 21.5893L29 33.9432L30.9645 36L43.3545 24.5369C43.551 24.3536 43.7096 24.1298 43.8206 23.8792C43.9315 23.6286 43.9923 23.3566 43.9993 23.0802C44.0063 22.8038 43.9593 22.5288 43.8612 22.2723C43.7631 22.0159 43.6161 21.7834 43.4291 21.5893Z" fill="white"/>
<path d="M30.616 36C30.5688 36.0003 30.5221 35.9913 30.4784 35.9736C30.4347 35.9559 30.3949 35.9298 30.3614 35.8968L28.1061 33.6629C28.0725 33.6299 28.0458 33.5905 28.0276 33.5472C28.0094 33.5038 28 33.4573 28 33.4104C28 33.3634 28.0094 33.3169 28.0276 33.2736C28.0458 33.2302 28.0725 33.1909 28.1061 33.1578L41.6168 19.7438C42.0993 19.2674 42.7523 19 43.433 19C44.1137 19 44.7667 19.2674 45.2491 19.7438C45.4971 19.9898 45.6916 20.2837 45.8205 20.6073C45.9494 20.9309 46.0101 21.2773 45.9986 21.6251C45.9872 21.9728 45.904 22.3146 45.7541 22.6291C45.6042 22.9437 45.3908 23.2244 45.1272 23.4539L30.8348 35.904C30.7751 35.9599 30.6979 35.9938 30.616 36ZM28.8734 33.4139L30.6304 35.1569L44.6718 22.9239C44.8627 22.7629 45.0186 22.5651 45.1301 22.3426C45.2416 22.12 45.3063 21.8773 45.3205 21.6292C45.3346 21.3811 45.2978 21.1327 45.2123 20.8991C45.1268 20.6655 44.9943 20.4516 44.823 20.2703C44.6517 20.089 44.445 19.9441 44.2155 19.8444C43.9861 19.7446 43.7386 19.6922 43.4881 19.6902C43.2376 19.6882 42.9893 19.7367 42.7582 19.8327C42.5272 19.9288 42.3182 20.0704 42.1439 20.2489L28.8734 33.4139Z" fill="#304FFE"/>
<path d="M20.4089 46.0302C20.3494 46.0554 20.3018 46.0958 20.2734 46.1452C20.2449 46.1946 20.2371 46.2503 20.2513 46.3037L20.8179 48.278C20.8681 48.3992 20.8646 48.531 20.808 48.6504C20.7514 48.7697 20.6453 48.8691 20.5081 48.9312C20.371 48.9934 20.2114 49.0143 20.0573 48.9904C19.9031 48.9664 19.7642 48.8992 19.6645 48.8003L16 45.8115L28.033 36L32.1736 36.052L35 38.3544C34.2993 38.833 30.2458 42.0077 20.4089 46.0302Z" fill="white"/>
<path d="M20.3362 52C20.2072 51.9999 20.0794 51.9741 19.9604 51.9241C19.8414 51.874 19.7336 51.8008 19.6432 51.7087L16.0939 48.1675C16.0341 48.1072 16.0004 48.0259 16 47.9409C15.9998 47.8983 16.0079 47.8561 16.024 47.8167C16.0402 47.7772 16.0639 47.7414 16.0939 47.7111L27.7166 36.0939C27.7472 36.0635 27.7837 36.0396 27.8237 36.0234C27.8637 36.0073 27.9066 35.9994 27.9498 36L31.9524 36.0615C32.0363 36.0627 32.1164 36.0964 32.1759 36.1554L34.9026 38.8841C34.9348 38.9156 34.9601 38.9535 34.9768 38.9953C34.9936 39.0371 35.0014 39.0819 34.9998 39.1269C34.9976 39.1717 34.9861 39.2155 34.966 39.2556C34.9459 39.2958 34.9177 39.3313 34.8832 39.3599L34.6533 39.5606C31.227 42.5677 26.5572 45.5651 20.7508 48.4718L21.2948 50.7862C21.3464 50.9953 21.3271 51.2156 21.2397 51.4125C21.1524 51.6094 21.002 51.7716 20.8123 51.8738C20.6667 51.9551 20.503 51.9985 20.3362 52ZM16.774 47.9409L20.0934 51.2458C20.1363 51.3213 20.2075 51.3768 20.2913 51.3998C20.3751 51.4229 20.4647 51.4117 20.5403 51.3688C20.6158 51.3259 20.6713 51.2547 20.6944 51.1709C20.7174 51.0872 20.7063 50.9977 20.6633 50.9221L20.116 48.5851C20.0847 48.4505 20.0996 48.3093 20.1583 48.1842C20.2171 48.0591 20.3163 47.9575 20.4399 47.8956C26.1848 45.0148 30.8028 42.0498 34.2031 39.0816L31.8132 36.6927L28.0793 36.6345L16.774 47.9409Z" fill="#304FFE"/>
<path d="M12.1778 50.3634L15.3235 47L20 52L12.5293 51.4518C12.4174 51.4382 12.3114 51.391 12.2235 51.3156C12.1356 51.2403 12.0695 51.1399 12.0327 51.0261C11.9959 50.9122 11.99 50.7896 12.0157 50.6723C12.0414 50.555 12.0976 50.4479 12.1778 50.3634Z" fill="white"/>
<path d="M19.6611 52H19.641L12.795 51.5262C12.6286 51.509 12.4704 51.4445 12.3388 51.3403C12.2072 51.2361 12.1075 51.0964 12.0514 50.9374C11.9952 50.7784 11.9849 50.6066 12.0215 50.4419C12.0581 50.2773 12.1403 50.1264 12.2584 50.0069L15.1396 47.1001C15.1708 47.0684 15.2079 47.0432 15.2488 47.026C15.2897 47.0088 15.3335 47 15.3778 47C15.4221 47 15.4659 47.0088 15.5068 47.026C15.5476 47.0432 15.5847 47.0684 15.6159 47.1001L19.8992 51.4213C19.9485 51.47 19.9817 51.5329 19.9944 51.6013C20.007 51.6697 19.9983 51.7404 19.9697 51.8037C19.9425 51.863 19.8989 51.913 19.8441 51.9479C19.7894 51.9827 19.7258 52.0008 19.6611 52ZM15.3778 47.8175L12.7347 50.484C12.7052 50.5119 12.6844 50.5479 12.6748 50.5876C12.6653 50.6273 12.6674 50.6689 12.681 50.7073C12.6936 50.7462 12.7171 50.7807 12.7487 50.8065C12.7802 50.8323 12.8184 50.8484 12.8588 50.8528L18.7924 51.2623L15.3778 47.8175Z" fill="#304FFE"/>
<path d="M26.2215 36.9993C26.1777 36.9991 26.1351 36.9841 26.0987 36.9561C26.0624 36.9281 26.034 36.8884 26.0172 36.842C26.0003 36.7955 25.9957 36.7444 26.004 36.695C26.0122 36.6456 26.033 36.6001 26.0636 36.5641L28.2251 34.0757C28.2458 34.0517 28.2704 34.0327 28.2975 34.0197C28.3246 34.0067 28.3536 34 28.383 34C28.4124 34 28.4414 34.0067 28.4685 34.0197C28.4956 34.0327 28.5202 34.0517 28.5409 34.0757L29.933 35.6809C29.962 35.7135 29.9827 35.7545 29.9928 35.7996C30.003 35.8447 30.0023 35.8922 29.9908 35.9369C29.9793 35.9808 29.9578 36.0204 29.9284 36.0515C29.8991 36.0826 29.863 36.104 29.824 36.1135L26.2659 36.9968C26.2513 36.9999 26.2363 37.0008 26.2215 36.9993ZM28.383 34.6185L26.9197 36.3107L29.337 35.709L28.383 34.6185Z" fill="#304FFE"/>
<path d="M30 35.4469L27.4302 35.9915C27.3554 36.0081 27.2771 36.0002 27.2072 35.969C27.1374 35.9377 27.0797 35.8848 27.043 35.8183C27.0063 35.7518 26.9926 35.6753 27.0038 35.6004C27.0151 35.5254 27.0508 35.4562 27.1055 35.4031L28.5259 34L30 35.4469Z" fill="white"/>
<path d="M27.6049 36.3641C27.4459 36.3641 27.2904 36.3168 27.1582 36.2282C27.026 36.1397 26.923 36.0138 26.8623 35.8665C26.8017 35.7193 26.786 35.5573 26.8174 35.4012C26.8488 35.245 26.9257 35.1017 27.0385 34.9894L28.9841 33.0411C29.0139 33.011 29.0493 32.9872 29.0883 32.9709C29.1273 32.9547 29.1691 32.9463 29.2113 32.9463C29.2536 32.9463 29.2954 32.9547 29.3344 32.9709C29.3734 32.9872 29.4088 33.011 29.4385 33.0411L31.4417 35.0503C31.4834 35.091 31.5132 35.1424 31.5279 35.1989C31.5425 35.2554 31.5415 35.3148 31.5249 35.3707C31.5084 35.4257 31.4774 35.4753 31.4352 35.5142C31.393 35.5531 31.3411 35.5799 31.2849 35.5918L27.7649 36.3513C27.7122 36.361 27.6586 36.3653 27.6049 36.3641ZM29.2049 33.7204L27.4833 35.4412C27.4574 35.466 27.4407 35.4988 27.4361 35.5344C27.4314 35.57 27.4391 35.6061 27.4577 35.6367C27.472 35.6703 27.4982 35.6975 27.5313 35.7129C27.5644 35.7283 27.6021 35.7308 27.6369 35.72L30.5681 35.0791L29.2049 33.7204Z" fill="#304FFE"/>
<path d="M50.8081 16.2434C50.7917 16.1929 50.7647 16.1466 50.7289 16.1075C50.6932 16.0684 50.6494 16.0374 50.6007 16.0166C50.552 15.9958 50.4994 15.9857 50.4464 15.9869C50.3935 15.9882 50.3414 16.0008 50.2937 16.0238C50.246 16.0469 50.2038 16.0799 50.1699 16.1207C50.136 16.1614 50.1112 16.209 50.0972 16.2601C50.0832 16.3113 50.0803 16.3649 50.0886 16.4172C50.097 16.4696 50.1165 16.5196 50.1457 16.5638C50.2409 16.7566 50.2786 16.9728 50.2542 17.1865C50.2298 17.4002 50.1443 17.6024 50.0081 17.7687C49.9455 17.8444 49.9154 17.9419 49.9244 18.0398C49.9334 18.1377 49.9808 18.228 50.0561 18.291C50.1325 18.3525 50.2298 18.3816 50.3274 18.372C50.4249 18.3624 50.5148 18.3149 50.5777 18.2397C50.8035 17.9643 50.9454 17.6295 50.9862 17.2755C51.0271 16.9215 50.9653 16.5631 50.8081 16.2434Z" fill="#304FFE"/>
</g>
<defs>
<clipPath id="clip0">
<rect width="64" height="64" fill="white"/>
</clipPath>
</defs>
</svg>
