<svg width="64" height="64" viewBox="0 0 64 64" fill="none" xmlns="http://www.w3.org/2000/svg">
<path d="M0 15.125H7.625V18.875H0V15.125Z" fill="#304FFE"/>
<path d="M56.375 45.125H64V48.875H56.375V45.125Z" fill="#304FFE"/>
<path d="M45.125 64H48.875V56.375H56.375V48.875H45.125V64Z" fill="#304FFE"/>
<path d="M18.875 0H15.125V7.625H7.625V15.125H18.875C18.875 14.7466 18.875 0.933625 18.875 0Z" fill="#304FFE"/>
<path d="M32 45.125C33.0355 45.125 33.875 44.2855 33.875 43.25C33.875 42.2145 33.0355 41.375 32 41.375C30.9645 41.375 30.125 42.2145 30.125 43.25C30.125 44.2855 30.9645 45.125 32 45.125Z" fill="#304FFE"/>
<path d="M32 22.625C33.0355 22.625 33.875 21.7855 33.875 20.75C33.875 19.7145 33.0355 18.875 32 18.875C30.9645 18.875 30.125 19.7145 30.125 20.75C30.125 21.7855 30.9645 22.625 32 22.625Z" fill="#304FFE"/>
<path d="M64 18.875V15.125H56.375V7.625H48.875V0H45.125V7.625H33.875V0H30.125V7.625H22.625V18.875H7.625V26.375H23.7124L26.9375 23.15C26.6 22.4375 26.375 21.6124 26.375 20.75C26.375 17.6374 28.8874 15.125 32 15.125C35.1126 15.125 37.625 17.6374 37.625 20.75C37.625 23.8624 35.1126 26.375 32 26.375C31.1376 26.375 30.3125 26.15 29.6 25.8124L25.2876 30.125C22.2344 30.125 2.818 30.125 0 30.125V33.875H7.625V41.375H16.2236L23.1742 34.4244L25.8256 37.0757L17.7764 45.125C12.3255 45.125 5.44763 45.125 0 45.125V48.875H7.625V56.375H15.125V64H18.875V56.375H30.125V64H33.875V56.375H41.375V45.125H56.375V37.625H40.2876L37.0625 40.85C37.4 41.5625 37.625 42.3874 37.625 43.25C37.625 46.3624 35.1126 48.875 32 48.875C28.8874 48.875 26.375 46.3624 26.375 43.25C26.375 40.1374 28.8874 37.625 32 37.625C32.8624 37.625 33.6875 37.85 34.4 38.1874L38.7124 33.875H64V30.125H56.375V22.625H47.7876L40.8125 29.5624L38.1876 26.9374L46.2124 18.875H64Z" fill="#304FFE"/>
</svg>
