<svg width="64" height="64" viewBox="0 0 64 64" fill="none" xmlns="http://www.w3.org/2000/svg">
<path d="M37.7436 31.7214C37.7436 34.8945 35.1731 37.465 32 37.465C28.8269 37.465 26.2564 34.8945 26.2564 31.7214C26.2564 28.5483 28.8269 25.9778 32 25.9778C35.1731 25.9778 37.7436 28.5483 37.7436 31.7214Z" fill="#304FFE"/>
<path d="M32 38.2852C28.3814 38.2852 25.4359 35.3397 25.4359 31.7211C25.4359 28.1025 28.3814 25.157 32 25.157C35.6186 25.157 38.5641 28.1025 38.5641 31.7211C38.5641 35.3397 35.6186 38.2852 32 38.2852ZM32 26.798C29.2853 26.798 27.0769 29.0063 27.0769 31.7211C27.0769 34.4358 29.2853 36.6442 32 36.6442C34.7147 36.6442 36.9231 34.4358 36.9231 31.7211C36.9231 29.0063 34.7147 26.798 32 26.798Z" fill="#304FFE"/>
<path d="M63.5898 31.7211C63.5898 27.3109 58.2789 23.4936 50.0353 21.2211C52.1539 12.9359 51.5032 6.42304 47.718 4.21151C46.2244 3.33971 44.4135 3.17946 42.3333 3.73715C39.1987 4.57369 35.609 7.02561 32 10.6282C28.391 7.02561 24.8013 4.57689 21.6667 3.73715C19.5865 3.17946 17.7756 3.33971 16.2821 4.21151C12.4968 6.42304 11.8462 12.9359 13.9648 21.2211C5.72114 23.4936 0.410248 27.3109 0.410248 31.7211C0.410248 36.1314 5.72114 39.9487 13.9648 42.2243C11.8462 50.5064 12.4968 57.0224 16.2821 59.2307C17.1955 59.7628 18.2276 60.032 19.3654 60.032C20.0898 60.032 20.859 59.923 21.6667 59.7051C24.8013 58.8686 28.391 56.4166 32 52.8141C35.609 56.4166 39.1987 58.8686 42.3333 59.7051C43.141 59.923 43.9103 60.032 44.6346 60.032C45.7724 60.032 46.8045 59.766 47.718 59.2307C51.5032 57.0224 52.1539 50.5064 50.0353 42.2243C58.2789 39.9487 63.5898 36.1314 63.5898 31.7211ZM42.968 6.11215C43.5641 5.9551 44.1154 5.87497 44.625 5.87497C45.3301 5.87497 45.9487 6.02881 46.4744 6.33651C49.0128 7.81728 49.5289 13.2468 47.641 20.6218C45.0385 20.0384 42.1955 19.5961 39.1763 19.3237C37.4071 16.7692 35.5641 14.4455 33.7051 12.407C37.0032 9.10253 40.2372 6.84612 42.968 6.11215ZM40.8237 36.891C39.8558 38.5833 38.8398 40.2083 37.7949 41.7628C35.9391 41.9006 34.0064 41.9775 32 41.9775C29.9936 41.9775 28.0609 41.9006 26.2051 41.7628C25.1603 40.2083 24.1442 38.5833 23.1763 36.891C22.1763 35.1378 21.2789 33.4102 20.4744 31.7211C21.2789 30.032 22.1763 28.3077 23.1763 26.5545C24.1442 24.8589 25.1603 23.2339 26.2083 21.6795C28.0609 21.5416 29.9936 21.4647 32 21.4647C34.0064 21.4647 35.9391 21.5416 37.7949 21.6795C38.8398 23.2339 39.8558 24.8589 40.8237 26.5545C41.8237 28.3077 42.7212 30.032 43.5257 31.7211C42.7212 33.4102 41.8237 35.1378 40.8237 36.891ZM44.8365 34.6314C45.6891 36.6506 46.3974 38.5929 46.968 40.4423C45.0994 40.8557 43.0865 41.2051 40.9327 41.4615C41.625 40.3718 42.3045 39.2596 42.9615 38.1089C43.6282 36.9455 44.25 35.782 44.8365 34.6314ZM32 49.2436C30.6571 47.7596 29.3173 46.1186 28.0096 44.3397C29.3141 44.4006 30.6442 44.4391 32 44.4391C33.3558 44.4391 34.6859 44.4006 35.9904 44.3397C34.6827 46.1154 33.343 47.7596 32 49.2436ZM23.0673 41.4615C20.9135 41.2051 18.8974 40.8557 17.0321 40.4423C17.6026 38.5929 18.3077 36.6474 19.1635 34.6314C19.75 35.782 20.3718 36.9455 21.0385 38.1089C21.6955 39.2596 22.375 40.375 23.0673 41.4615ZM19.1635 28.8141C18.3109 26.7948 17.6026 24.8493 17.0321 23C18.9006 22.5833 20.9167 22.2371 23.0673 21.9807C22.375 23.0673 21.6955 24.1827 21.0385 25.3333C20.3718 26.5 19.75 27.6602 19.1635 28.8141ZM32 14.1987C33.343 15.6827 34.6827 17.3269 35.9904 19.1025C34.6859 19.0416 33.3558 19.0032 32 19.0032C30.6442 19.0032 29.3141 19.0416 28.0096 19.1025C29.3173 17.3269 30.6571 15.6827 32 14.1987ZM42.9615 25.3333C42.3045 24.1827 41.625 23.0705 40.9327 21.9807C43.0865 22.2371 45.0994 22.5865 46.968 23C46.3974 24.8493 45.6923 26.7948 44.8365 28.8141C44.25 27.6602 43.6282 26.5 42.9615 25.3333ZM17.5256 6.33651C18.0513 6.02881 18.6699 5.87497 19.375 5.87497C19.8846 5.87497 20.4359 5.9551 21.0321 6.11215C23.7628 6.84612 26.9968 9.10253 30.2949 12.407C28.4359 14.4423 26.593 16.7692 24.8237 19.3237C21.8045 19.5961 18.9615 20.0352 16.359 20.6218C14.4712 13.2436 14.9872 7.81728 17.5256 6.33651ZM2.87178 31.7211C2.87178 28.7692 7.30447 25.6154 14.6346 23.5961C15.4295 26.1891 16.4712 28.9198 17.7564 31.7211C16.4712 34.5224 15.4295 37.2532 14.6346 39.8461C7.30447 37.8269 2.87178 34.673 2.87178 31.7211ZM21.0321 57.3301C19.609 57.7083 18.4295 57.6314 17.5256 57.1057C14.9872 55.625 14.4712 50.1987 16.359 42.8205C18.9615 43.407 21.8045 43.8461 24.8205 44.1186C26.593 46.673 28.4359 49 30.2917 51.0352C26.9968 54.3397 23.7628 56.5961 21.0321 57.3301ZM46.4744 57.1057C45.5705 57.6346 44.391 57.7083 42.968 57.3301C40.2372 56.5961 37.0032 54.3397 33.7051 51.0352C35.5641 49 37.4071 46.673 39.1763 44.1186C42.1955 43.8461 45.0385 43.4038 47.641 42.8205C49.5289 50.1987 49.0128 55.625 46.4744 57.1057ZM49.3654 39.8461C48.5705 37.2532 47.5289 34.5224 46.2436 31.7211C47.5289 28.9198 48.5705 26.1891 49.3654 23.5961C56.6955 25.6154 61.1282 28.7692 61.1282 31.7211C61.1282 34.673 56.6955 37.8269 49.3654 39.8461Z" fill="#304FFE"/>
<path d="M19.359 60.4424C18.1538 60.4424 17.0481 60.154 16.0769 59.5867C12.2756 57.3655 11.3333 51.154 13.4679 42.5097C4.90385 40.0738 0 36.1508 0 31.7213C0 27.2918 4.90385 23.3687 13.4679 20.9328C11.3333 12.2886 12.2756 6.07704 16.0769 3.85588C17.6667 2.9264 19.5833 2.75332 21.7724 3.33986C24.8237 4.15717 28.3558 6.47447 32 10.0514C35.6474 6.47447 39.1763 4.15717 42.2276 3.33986C44.4167 2.75332 46.3333 2.9296 47.9231 3.85588C51.7244 6.07704 52.6667 12.2886 50.5321 20.9328C59.0962 23.3687 64 27.2918 64 31.7213C64 36.1508 59.0962 40.0738 50.5321 42.5097C52.6667 51.154 51.7244 57.3655 47.9231 59.5867C46.3429 60.5097 44.4071 60.686 42.2276 60.1027C39.1763 59.2854 35.6442 56.9681 32 53.3911C28.3558 56.9681 24.8237 59.2854 21.7724 60.1027C20.9359 60.327 20.125 60.4424 19.3654 60.4424C19.3622 60.4424 19.3622 60.4424 19.359 60.4424ZM19.3686 3.82383C18.3013 3.82383 17.3365 4.07063 16.4904 4.56742C13.0224 6.58986 12.2276 12.779 14.3622 21.1187C14.4167 21.3367 14.2885 21.5578 14.0705 21.6155C5.77564 23.904 0.820513 27.6828 0.820513 31.7213C0.820513 35.7597 5.77564 39.5386 14.0737 41.827C14.2885 41.8847 14.4167 42.1059 14.3622 42.3238C12.2276 50.6636 13.0224 56.8527 16.4904 58.8751C17.3365 59.3687 18.3013 59.6187 19.359 59.6187C19.3622 59.6187 19.3622 59.6187 19.3654 59.6187C20.0513 59.6187 20.7917 59.5161 21.5609 59.3078C24.5545 58.5065 28.0641 56.1604 31.7115 52.5226C31.8718 52.3655 32.1282 52.3655 32.2885 52.5226C35.9359 56.1604 39.4455 58.5065 42.4391 59.3078C44.4038 59.8335 46.1186 59.6892 47.5096 58.8751C50.9776 56.8527 51.7724 50.6636 49.6378 42.3238C49.5833 42.1059 49.7115 41.8847 49.9263 41.827C58.2244 39.5386 63.1795 35.7597 63.1795 31.7213C63.1795 27.6828 58.2244 23.904 49.9263 21.6155C49.7115 21.5578 49.5833 21.3367 49.6378 21.1187C51.7724 12.779 50.9744 6.58986 47.5096 4.56742C46.1154 3.75011 44.4071 3.60588 42.4391 4.13473C39.4455 4.93601 35.9359 7.28217 32.2885 10.92C32.1282 11.077 31.8686 11.077 31.7083 10.92C28.0609 7.28217 24.5545 4.93601 21.5609 4.13473C20.7885 3.9264 20.0577 3.82383 19.3686 3.82383ZM44.625 57.9777C44.0801 57.9777 43.4936 57.8944 42.8622 57.7245C40.1314 56.9937 36.8654 54.779 33.4167 51.3238C33.2628 51.17 33.2564 50.92 33.4038 50.7597C35.2628 48.7213 37.0897 46.4072 38.8397 43.8847C38.9103 43.7854 39.0192 43.7213 39.141 43.7085C42.1058 43.4424 44.9327 43.0097 47.5513 42.42C47.766 42.3719 47.984 42.5033 48.0385 42.7181C49.9551 50.202 49.4359 55.8527 46.6827 57.4585C46.0929 57.8046 45.4038 57.9777 44.625 57.9777ZM34.2724 51.0194C37.516 54.2149 40.5545 56.2565 43.0737 56.9328C44.3878 57.2822 45.4615 57.2213 46.2692 56.7533C48.6122 55.3847 49.0224 50.1283 47.3397 43.3046C44.8558 43.8463 42.1891 44.2501 39.4071 44.5097C37.7532 46.8815 36.0256 49.0706 34.2724 51.0194ZM19.375 57.9777C18.5962 57.9777 17.9071 57.8046 17.3173 57.4617C14.5641 55.8527 14.0449 50.202 15.9615 42.7181C16.016 42.5033 16.234 42.3751 16.4487 42.42C19.0641 43.0097 21.8942 43.4424 24.859 43.7085C24.9808 43.7213 25.0897 43.7854 25.1603 43.8847C26.9103 46.4072 28.7372 48.7213 30.5962 50.7597C30.7436 50.92 30.7404 51.17 30.5833 51.3238C27.1346 54.779 23.8686 56.9937 21.1378 57.7245C20.5064 57.8911 19.9199 57.9777 19.375 57.9777ZM16.6603 43.3046C14.9776 50.1283 15.3878 55.3847 17.7308 56.7533C18.5385 57.2213 19.6122 57.2822 20.9263 56.9328C23.4455 56.2565 26.484 54.2149 29.7276 51.0194C27.9744 49.0706 26.25 46.8815 24.5962 44.5097C21.8109 44.2501 19.1442 43.8463 16.6603 43.3046ZM32 49.654C31.8846 49.654 31.7724 49.6059 31.6955 49.5194C30.3301 48.0097 28.9808 46.3495 27.6795 44.5802C27.5833 44.4552 27.5737 44.2822 27.6474 44.1443C27.7212 44.0033 27.8622 43.92 28.0288 43.9296C30.7404 44.061 33.2596 44.061 35.9712 43.9296C36.1346 43.9168 36.2788 44.0033 36.3526 44.1443C36.4263 44.2822 36.4167 44.452 36.3205 44.5802C35.0192 46.3463 33.6699 48.0097 32.3045 49.5194C32.2276 49.6059 32.1154 49.654 32 49.654ZM28.8558 44.7886C29.8814 46.1444 30.9359 47.4328 32 48.6315C33.0641 47.4328 34.1186 46.1444 35.1442 44.7886C33.0032 44.8687 30.9968 44.8687 28.8558 44.7886ZM32 42.3879C30.0577 42.3879 28.0962 42.3142 26.1763 42.1732C26.0481 42.1636 25.9359 42.0963 25.8654 41.9905C24.7692 40.3591 23.7436 38.7117 22.8205 37.0931C21.8526 35.3976 20.9359 33.6476 20.1026 31.8976C20.0513 31.7854 20.0513 31.6572 20.1026 31.545C20.9359 29.795 21.8526 28.045 22.8205 26.3495C23.7436 24.7341 24.766 23.0835 25.8654 21.4488C25.9359 21.3463 26.0513 21.279 26.1763 21.2693C30.0192 20.9809 33.9808 20.9809 37.8237 21.2693C37.9487 21.279 38.0641 21.3463 38.1346 21.4488C39.234 23.0835 40.2564 24.7341 41.1795 26.3495C42.1474 28.045 43.0641 29.795 43.8974 31.545C43.9487 31.6572 43.9487 31.7854 43.8974 31.8976C43.0641 33.6476 42.1474 35.3976 41.1795 37.0931C40.2564 38.7117 39.2308 40.3591 38.1346 41.9905C38.0641 42.0963 37.9519 42.1636 37.8237 42.1732C35.9038 42.3142 33.9423 42.3879 32 42.3879ZM26.4359 41.3687C30.109 41.6315 33.891 41.6315 37.5641 41.3687C38.609 39.8078 39.5833 38.2309 40.4679 36.686C41.3942 35.0642 42.2692 33.3943 43.0705 31.7213C42.2692 30.0482 41.3942 28.3783 40.4679 26.7565C39.5865 25.2117 38.609 23.6379 37.5641 22.0738C33.8878 21.811 30.109 21.811 26.4359 22.0738C25.3878 23.6379 24.4135 25.2117 23.5288 26.7565C22.6058 28.3783 21.7276 30.0482 20.9263 31.7213C21.7276 33.3943 22.6058 35.0642 23.5288 36.686C24.4135 38.2341 25.391 39.8078 26.4359 41.3687ZM40.9327 41.8719C40.7949 41.8719 40.6635 41.8014 40.5865 41.6796C40.5032 41.545 40.5032 41.3751 40.5865 41.2405C41.3494 40.0418 42.0096 38.952 42.6058 37.9072C43.234 36.8078 43.859 35.6443 44.4712 34.4456C44.5417 34.3014 44.6955 34.2181 44.8494 34.2213C45.0096 34.2277 45.1506 34.3238 45.2147 34.4713C46.0481 36.4392 46.7692 38.4072 47.359 40.3206C47.3942 40.4296 47.3782 40.5482 47.3237 40.6476C47.266 40.7469 47.1667 40.8174 47.0577 40.8431C45.1282 41.2726 43.0833 41.6187 40.9808 41.8687C40.9647 41.8719 40.9487 41.8719 40.9327 41.8719ZM44.7981 35.6027C44.3109 36.5354 43.8141 37.4456 43.3205 38.311C42.8397 39.1508 42.3205 40.0193 41.7436 40.9456C43.359 40.7309 44.9359 40.4585 46.4423 40.1347C45.9679 38.6476 45.4167 37.1283 44.7981 35.6027ZM23.0673 41.8719C23.0513 41.8719 23.0321 41.8719 23.016 41.8687C20.9167 41.6187 18.8718 41.2726 16.9423 40.8399C16.8333 40.8174 16.7372 40.7469 16.6763 40.6476C16.6218 40.5482 16.6058 40.4296 16.641 40.3206C17.2308 38.4072 17.9519 36.4392 18.7853 34.4713C18.8494 34.3238 18.9904 34.2277 19.1506 34.2213C19.2981 34.2052 19.4583 34.3014 19.5288 34.4424C20.141 35.6411 20.766 36.8078 21.3942 37.904C21.9904 38.952 22.6506 40.0418 23.4135 41.2405C23.4968 41.3751 23.4968 41.545 23.4135 41.6796C23.3365 41.8014 23.2051 41.8719 23.0673 41.8719ZM17.5577 40.1347C19.0641 40.4585 20.641 40.7309 22.2564 40.9456C21.6795 40.0193 21.1603 39.1508 20.6827 38.311C20.1859 37.4456 19.6923 36.5354 19.2051 35.6027C18.5833 37.1283 18.0321 38.6476 17.5577 40.1347ZM49.3654 40.2565C49.1891 40.2565 49.0288 40.1411 48.9744 39.9649C48.1731 37.3559 47.1282 34.6411 45.8718 31.8943C45.8205 31.7854 45.8205 31.6604 45.8718 31.5514C47.1282 28.8014 48.1731 26.0867 48.9744 23.4777C49.0417 23.2629 49.266 23.1443 49.4776 23.202C56.9167 25.2533 61.5385 28.5161 61.5385 31.7213C61.5385 34.9264 56.9167 38.1892 49.4744 40.2405C49.4391 40.2501 49.4006 40.2565 49.3654 40.2565ZM46.6955 31.7213C47.8718 34.311 48.8622 36.8719 49.6378 39.3431C56.3846 37.42 60.7179 34.4456 60.7179 31.7213C60.7179 28.9969 56.3846 26.0226 49.6378 24.0995C48.8622 26.5706 47.8718 29.1347 46.6955 31.7213ZM14.6346 40.2565C14.5962 40.2565 14.5609 40.2501 14.5256 40.2405C7.08333 38.1892 2.46154 34.9264 2.46154 31.7213C2.46154 28.5161 7.08333 25.2533 14.5256 23.202C14.7372 23.1443 14.9615 23.2629 15.0256 23.4777C15.8269 26.0867 16.8718 28.8014 18.1314 31.5514C18.1795 31.6604 18.1795 31.7822 18.1314 31.8943C16.8718 34.6411 15.8269 37.3559 15.0256 39.9649C14.9712 40.1411 14.8109 40.2565 14.6346 40.2565ZM14.3622 24.0995C7.61538 26.0226 3.28205 28.9969 3.28205 31.7213C3.28205 34.4456 7.61538 37.42 14.3622 39.3431C15.1378 36.8719 16.1282 34.311 17.3045 31.7213C16.1282 29.1347 15.1378 26.5706 14.3622 24.0995ZM44.8365 29.2245C44.6827 29.2245 44.5417 29.1379 44.4712 29.0001C43.8494 27.779 43.2404 26.6476 42.6058 25.5386C42.0096 24.4937 41.3494 23.404 40.5865 22.202C40.5032 22.0674 40.5032 21.8976 40.5865 21.7629C40.6699 21.6283 40.8237 21.5546 40.984 21.5738C43.0865 21.827 45.1314 22.17 47.0577 22.6027C47.1699 22.6251 47.266 22.6956 47.3237 22.795C47.3814 22.8943 47.3942 23.0129 47.3622 23.1219C46.7692 25.0386 46.0481 27.0065 45.2147 28.9745C45.1538 29.1187 45.0128 29.2181 44.8526 29.2245C44.8462 29.2245 44.8397 29.2245 44.8365 29.2245ZM43.3173 25.1315C43.8205 26.0097 44.3077 26.9008 44.7949 27.8399C45.4167 26.3174 45.9679 24.7982 46.4423 23.3078C44.9327 22.9841 43.359 22.7117 41.7404 22.4969C42.3205 23.4264 42.8397 24.2918 43.3173 25.1315ZM19.1635 29.2245C19.1571 29.2245 19.1538 29.2245 19.1474 29.2245C18.9904 29.2181 18.8462 29.1219 18.7853 28.9745C17.9551 27.0097 17.2308 25.0386 16.641 23.1219C16.6058 23.0129 16.6186 22.8943 16.6763 22.795C16.734 22.6988 16.8301 22.6251 16.9423 22.6027C18.8718 22.17 20.9135 21.827 23.0192 21.5738C23.1763 21.5578 23.3301 21.6283 23.4135 21.7629C23.5 21.8976 23.4968 22.0674 23.4135 22.202C22.6506 23.404 21.9904 24.4937 21.3942 25.5386C20.7628 26.6476 20.1506 27.779 19.5288 29.0001C19.4583 29.1379 19.3173 29.2245 19.1635 29.2245ZM17.5577 23.3078C18.0321 24.7982 18.5833 26.3174 19.2019 27.8399C19.6923 26.9008 20.1795 26.0097 20.6795 25.1315C21.1603 24.2918 21.6795 23.4264 22.2564 22.4969C20.641 22.7117 19.0641 22.9841 17.5577 23.3078ZM47.641 21.0322C47.6122 21.0322 47.5801 21.029 47.5513 21.0226C44.9359 20.4328 42.1058 20.0001 39.141 19.7341C39.0192 19.7213 38.9103 19.6572 38.8397 19.5578C37.0897 17.0354 35.2596 14.7213 33.4038 12.686C33.2564 12.5226 33.2596 12.2726 33.4167 12.1187C36.8622 8.66358 40.1314 6.44883 42.8622 5.71806C44.3974 5.30781 45.6859 5.40076 46.6827 5.98409C49.4359 7.58986 49.9551 13.2405 48.0385 20.7245C47.9904 20.9104 47.8237 21.0322 47.641 21.0322ZM39.4038 18.9328C42.1891 19.1924 44.8558 19.5963 47.3397 20.1379C49.0224 13.3142 48.6122 8.05781 46.2692 6.68922C45.4647 6.22127 44.3878 6.16037 43.0737 6.50973C40.5545 7.18601 37.516 9.22768 34.2724 12.4232C36.0256 14.3719 37.75 16.5578 39.4038 18.9328ZM16.359 21.0322C16.1763 21.0322 16.0096 20.9104 15.9615 20.7245C14.0449 13.2405 14.5641 7.58986 17.3173 5.98409C18.3141 5.40076 19.6058 5.30781 21.1346 5.71806C23.8686 6.45204 27.1346 8.66358 30.5833 12.1187C30.7372 12.2726 30.7436 12.5226 30.5962 12.686C28.7372 14.7213 26.9103 17.0354 25.1571 19.5578C25.0897 19.6572 24.9808 19.7213 24.859 19.7341C21.8942 20.0001 19.0641 20.4328 16.4487 21.0226C16.4199 21.029 16.3878 21.0322 16.359 21.0322ZM17.7308 6.68922C15.3878 8.05781 14.9776 13.3142 16.6603 20.1379C19.1442 19.5963 21.8109 19.1924 24.5929 18.9328C26.25 16.5578 27.9744 14.3719 29.7244 12.4232C26.484 9.22768 23.4455 7.18601 20.9231 6.50973C19.6154 6.16037 18.5385 6.22127 17.7308 6.68922ZM35.9904 19.5129C35.984 19.5129 35.9776 19.5129 35.9712 19.5129C33.2596 19.3815 30.7436 19.3815 28.0288 19.5129C27.859 19.5193 27.7212 19.436 27.6474 19.2982C27.5737 19.1572 27.5833 18.9873 27.6795 18.8591C28.9808 17.0931 30.3333 15.4296 31.6955 13.9232C31.8526 13.7501 32.1506 13.7501 32.3045 13.9232C33.6667 15.4296 35.0192 17.0931 36.3237 18.8591C36.4167 18.9873 36.4295 19.1572 36.3526 19.2982C36.2821 19.4296 36.141 19.5129 35.9904 19.5129ZM32 18.5931C33.0192 18.5931 34.0737 18.6155 35.1442 18.6572C34.1186 17.2982 33.0641 16.0065 32 14.8142C30.9359 16.0097 29.8814 17.2982 28.8558 18.6572C29.9263 18.6155 30.9808 18.5931 32 18.5931Z" fill="#304FFE"/>
</svg>
