<svg width="64" height="64" viewBox="0 0 64 64" fill="none" xmlns="http://www.w3.org/2000/svg">
<g clip-path="url(#clip0)">
<path d="M30.2017 3C20.165 3 12 13.6778 12 26.8011C12 33.901 14.3996 40.2681 18.1856 44.6258C18.1127 44.9387 18.0672 45.2603 18.0672 45.5938C18.0672 48.0275 20.1043 50 22.6177 50C25.131 50 27.1681 48.0275 27.1681 45.5938C27.1681 43.16 25.131 41.1875 22.6177 41.1875C22.1399 41.1875 21.6894 41.2786 21.2571 41.4108C18.3797 37.8549 16.5504 32.632 16.5504 26.8011C16.5504 16.1071 22.6738 7.40625 30.2017 7.40625C36.0217 7.40625 40.9878 12.6159 42.949 19.9171C44.6509 20.4252 46.3421 21.0656 48 21.8382C46.2481 11.0899 38.937 3 30.2017 3Z" fill="#304FFE"/>
<path d="M49.2528 26.1269C43.1086 22.5384 36.2172 20.9631 30.2893 21.6877C29.4332 20.6661 28.138 20 26.67 20C24.0906 20 22 22.0148 22 24.5006C22 26.9865 24.0906 29.0013 26.67 29.0013C28.6501 29.0013 30.3329 27.8086 31.0116 26.1329C35.8654 25.5643 41.6157 26.9295 46.8322 29.9779C56.7996 35.8003 61.8853 45.8337 58.1679 52.3476C56.8806 54.6039 54.6094 56.2062 51.6019 56.9833C48.0433 57.8999 43.8076 57.5744 39.5734 56.1912C38.2673 57.3493 36.8507 58.4385 35.3314 59.4436C39.3041 61.1194 43.4199 62 47.2696 62C49.1999 62 51.0648 61.7795 52.8098 61.3294C57.0767 60.2298 60.3457 57.8729 62.2605 54.5154C67.1687 45.9177 61.3327 33.1824 49.2528 26.1269Z" fill="#304FFE"/>
<path d="M49 39.8491C49 37.4102 46.9422 35.4319 44.4033 35.4319C41.8643 35.4319 39.8065 37.4102 39.8065 39.8491C39.8065 40.8368 40.1559 41.7403 40.7259 42.4755C38.7661 46.6122 34.9892 50.6943 29.9052 53.6632C23.983 57.1237 17.3637 58.3904 12.2001 57.0617C9.23978 56.2969 7.00424 54.7202 5.73707 52.4998C3.12919 47.932 4.93877 41.6104 9.73623 36.2779C9.24131 34.589 8.87511 32.8233 8.65446 31C0.885984 38.082 -2.23826 47.7165 1.71033 54.6346C3.59499 57.9386 6.81271 60.2579 11.0126 61.3401C12.7302 61.783 14.5643 62 16.4658 62C21.5927 62 27.2023 60.4233 32.2878 57.4529C38.1655 54.0204 42.5278 49.2194 44.866 44.222C47.1843 43.9961 49 42.136 49 39.8491Z" fill="#304FFE"/>
</g>
<defs>
<clipPath id="clip0">
<rect width="64" height="64" fill="white"/>
</clipPath>
</defs>
</svg>
