<svg width="54" height="54" viewBox="0 0 54 54" fill="none" xmlns="http://www.w3.org/2000/svg">
<path d="M31.7461 0H54V6.43359H31.7461V0Z" fill="white"/>
<path d="M31.7461 28.582H54V34.9102H31.7461V28.582Z" fill="white"/>
<path d="M31.7461 25.418H54V9.59766H31.7461V25.418ZM47.5664 22.2539H44.4023V19.0898H47.5664V22.2539ZM38.0742 12.7617H47.5664V15.9258H38.0742V12.7617ZM38.0742 19.0898H41.2383V22.2539H38.0742V19.0898Z" fill="white"/>
<path d="M6.43359 25.418H9.59766V28.582H6.43359V25.418Z" fill="white"/>
<path d="M19.0898 25.418H22.2539V28.582H19.0898V25.418Z" fill="white"/>
<path d="M28.582 3.26953H0V44.4023H54V38.0742H28.582V3.26953ZM12.7617 31.7461H3.26953V22.2539H12.7617V31.7461ZM25.418 31.7461H15.9258V22.2539H25.418V31.7461ZM25.418 19.0898H3.26953V9.59766H25.418V19.0898Z" fill="white"/>
<path d="M6.43359 12.7617H22.2539V15.9258H6.43359V12.7617Z" fill="white"/>
<path d="M34.9102 49.2539V47.6719H19.0898V49.2539C19.0898 50.1268 18.3807 50.8359 17.5078 50.8359H15.9258V54H38.0742V50.8359H36.4922C35.6193 50.8359 34.9102 50.1268 34.9102 49.2539Z" fill="white"/>
</svg>
