<svg width="54" height="54" viewBox="0 0 54 54" fill="none" xmlns="http://www.w3.org/2000/svg">
<path d="M0 0V43.875H54V0H0ZM22.2539 10.125H31.7461V13.5H22.2539V10.125ZM28.582 16.875V20.25H25.418V16.875H28.582ZM15.9258 10.125H19.0898V13.5H15.9258V10.125ZM15.9258 16.875H22.2539V20.25H15.9258V16.875ZM15.9258 23.625H19.0898V27H15.9258V23.625ZM14.3438 10.125C13.4709 10.125 12.7617 10.8814 12.7617 11.8125V18.5625C12.7617 19.8638 12.2863 21.0397 11.5273 21.9375C12.2863 22.8352 12.7617 24.0112 12.7617 25.3125V32.0625C12.7617 32.9935 13.4709 33.75 14.3438 33.75V37.125C11.7266 37.125 9.59766 34.8541 9.59766 32.0625V25.3125C9.59766 24.3814 8.88848 23.625 8.01562 23.625V20.25C8.88848 20.25 9.59766 19.4935 9.59766 18.5625V11.8125C9.59766 9.02092 11.7266 6.75 14.3438 6.75V10.125ZM22.2539 33.75H15.9258V30.375H22.2539V33.75ZM22.2539 23.625H31.7461V27H22.2539V23.625ZM28.582 33.75H25.418V30.375H28.582V33.75ZM38.0742 33.75H31.7461V30.375H38.0742V33.75ZM38.0742 27H34.9102V23.625H38.0742V27ZM38.0742 20.25H31.7461V16.875H38.0742V20.25ZM38.0742 13.5H34.9102V10.125H38.0742V13.5ZM45.9844 23.625C45.1115 23.625 44.4023 24.3814 44.4023 25.3125V32.0625C44.4023 34.8541 42.2734 37.125 39.6562 37.125V33.75C40.5291 33.75 41.2383 32.9935 41.2383 32.0625V25.3125C41.2383 24.0112 41.7137 22.8352 42.4727 21.9375C41.7137 21.0397 41.2383 19.8638 41.2383 18.5625V11.8125C41.2383 10.8814 40.5291 10.125 39.6562 10.125V6.75C42.2734 6.75 44.4023 9.02092 44.4023 11.8125V18.5625C44.4023 19.4935 45.1115 20.25 45.9844 20.25V23.625Z" fill="white"/>
<path d="M34.9102 48.9375V47.25H19.0898V48.9375C19.0898 49.8685 18.3807 50.625 17.5078 50.625H15.9258V54H38.0742V50.625H36.4922C35.6193 50.625 34.9102 49.8685 34.9102 48.9375Z" fill="white"/>
</svg>
