<svg width="64" height="64" viewBox="0 0 64 64" fill="none" xmlns="http://www.w3.org/2000/svg">
<g clip-path="url(#clip0)">
<path d="M55.0785 35.313C52.8414 35.3253 50.904 35.8959 49.2808 36.7479C48.6873 35.4877 48.0851 34.379 47.9848 33.5548C47.867 32.593 47.7302 32.0177 47.8728 30.8719C48.0153 29.7261 48.6393 28.1024 48.6306 27.9803C48.6219 27.8581 48.4909 27.2752 47.2008 27.2643C45.9106 27.2551 44.8067 27.5288 44.6772 27.8906C44.5477 28.2524 44.299 29.0673 44.1448 29.9178C43.9194 31.1611 41.5689 35.5975 40.2351 37.917C39.7987 37.0108 39.4278 36.2129 39.3508 35.582C39.2329 34.6202 39.0962 34.045 39.2388 32.8991C39.3813 31.7533 40.0053 30.1297 39.9966 30.0075C39.9878 29.8854 39.8569 29.3024 38.5668 29.2916C37.2766 29.2823 36.1726 29.556 36.0432 29.9178C35.9137 30.2797 35.7741 31.1255 35.5108 31.9451C35.2461 32.7631 32.1232 40.1622 31.3044 42.0812C30.8869 43.0585 30.5247 43.844 30.2687 44.379C30.2673 44.3775 30.2673 44.376 30.2673 44.376C30.2673 44.376 30.2513 44.4115 30.2251 44.4718C30.0055 44.928 29.876 45.18 29.876 45.18C29.876 45.18 29.8775 45.1831 29.8804 45.1893C29.7058 45.5249 29.5197 45.8357 29.428 45.8357C29.364 45.8357 29.2346 44.9435 29.4557 43.7188C29.9211 41.1519 31.0367 37.15 31.0265 37.0108C31.0207 36.9397 31.2345 36.2423 30.2978 35.8774C29.3873 35.5233 29.0629 36.1139 28.98 36.1155C28.9 36.117 28.8404 36.3242 28.8404 36.3242C28.8404 36.3242 29.8542 31.8229 26.9059 31.8229C25.0616 31.8229 22.5074 33.9676 21.2493 35.9114C20.4551 36.3722 18.7548 37.3587 16.9526 38.4118C16.2603 38.8169 15.5534 39.2298 14.8828 39.6226C14.8377 39.5684 14.7912 39.5159 14.7447 39.4617C11.168 35.4057 4.55865 32.5373 4.83792 27.0834C4.93974 25.101 5.58845 19.8806 17.5402 13.55C27.3306 8.36362 35.169 9.79088 36.5232 12.9531C38.4577 17.473 32.3342 25.8711 22.1671 27.0834C18.2937 27.5458 16.253 25.9484 15.7454 25.3546C15.2116 24.7284 15.1316 24.7005 14.9323 24.8181C14.6079 25.0098 14.813 25.5618 14.9323 25.8912C15.2363 26.7309 16.4813 28.22 18.6049 28.9622C20.474 29.6147 25.0223 29.9719 30.5218 27.7097C36.6832 25.1768 41.4933 18.1287 40.0795 12.2387C38.6424 6.24825 29.2986 4.27823 20.4551 7.61829C15.1854 9.60686 9.48802 12.7273 5.39064 16.8004C0.519454 21.6434 -0.257259 25.8603 0.0627352 27.6215C1.20017 33.8811 9.31493 37.9572 12.5643 40.9771C12.4043 41.0715 12.2531 41.1596 12.1163 41.24C10.4873 42.0967 4.3012 45.5388 2.7536 49.1742C0.997991 53.2982 3.03286 56.2579 4.37975 56.6569C8.55276 57.8908 12.8349 55.6703 15.1374 52.021C17.4384 48.3732 17.1577 43.6213 16.1017 41.4534C16.0886 41.4271 16.0741 41.4008 16.061 41.373C16.4813 41.1086 16.9104 40.8395 17.3352 40.5735C18.1642 40.0555 18.9788 39.5731 19.6842 39.1648C19.2886 40.3153 18.9991 41.6962 18.8493 43.6894C18.6719 46.0305 19.5751 49.0567 20.7562 50.2473C21.2769 50.7715 21.9023 50.7839 22.298 50.7839C23.6725 50.7839 24.2994 49.5685 24.9903 48.1304C25.8368 46.3676 26.5888 44.3141 26.5888 44.3141C26.5888 44.3141 25.6463 49.8592 28.215 49.8592C29.1517 49.8592 30.0927 48.568 30.5131 47.9109C30.5145 47.9186 30.5145 47.9217 30.5145 47.9217C30.5145 47.9217 30.5393 47.8784 30.5873 47.7933C30.6847 47.6356 30.74 47.5351 30.74 47.5351C30.74 47.5351 30.7415 47.5243 30.7444 47.5057C31.1211 46.8114 31.956 45.228 33.2069 42.6162C34.8243 39.2422 36.3748 35.0145 36.3748 35.0145C36.3748 35.0145 36.5188 36.0475 36.9915 37.7577C37.2693 38.7628 37.8599 39.8746 38.3268 40.9416C37.9515 41.4952 37.7217 41.8121 37.7217 41.8121C37.7217 41.8121 37.7231 41.8183 37.7275 41.8292C37.4279 42.2529 37.0919 42.709 36.7399 43.1544C35.4628 44.7703 33.9428 46.6166 33.7392 47.1485C33.4992 47.7763 33.5559 48.2371 34.0199 48.6098C34.3588 48.8804 34.961 48.9237 35.5908 48.8788C36.7384 48.7969 37.5442 48.4938 37.9428 48.3098C38.5639 48.0763 39.2868 47.7098 39.9646 47.1794C41.2169 46.2006 41.9718 44.8012 41.8991 42.9456C41.8583 41.9235 41.5529 40.9106 41.1645 39.955C41.278 39.7818 41.3914 39.6055 41.5063 39.4293C43.4801 36.3614 45.0117 32.9904 45.0117 32.9904C45.0117 32.9904 45.1557 34.0233 45.6285 35.7336C45.867 36.5979 46.3397 37.5428 46.7644 38.4675C44.9085 40.071 43.7579 41.9343 43.358 43.1559C42.6191 45.4166 43.198 46.4403 44.283 46.6738C44.7747 46.7789 45.4699 46.5393 45.9921 46.3042C46.6423 46.0754 47.4233 45.6934 48.1535 45.1228C49.4058 44.144 50.6102 42.774 50.5375 40.9199C50.504 40.0756 50.2887 39.2375 49.9964 38.4334C51.5702 37.736 53.6065 37.3495 56.2014 37.6711C61.7678 38.3623 62.8587 42.0565 62.6507 43.6028C62.4412 45.1491 61.2747 45.9996 60.8835 46.2563C60.4936 46.513 60.3744 46.6027 60.4064 46.7929C60.4544 47.0697 60.6347 47.0604 60.9678 47.0001C61.426 46.9181 63.8899 45.7429 63.9961 42.8884C64.1285 39.2607 60.8631 35.2805 55.0785 35.313ZM12.1745 50.6896C10.3302 52.8282 7.75569 53.6353 6.65025 52.955C5.45755 52.2205 5.93027 49.0721 8.19204 46.8021C9.57093 45.4197 11.3513 44.1455 12.5323 43.3616C12.8014 43.1899 13.1956 42.9379 13.6756 42.6317C13.7556 42.5838 13.8007 42.5575 13.8007 42.5575L13.7992 42.5544C13.8923 42.4956 13.9868 42.4353 14.0843 42.3719C14.909 45.6022 14.1105 48.4459 12.1745 50.6896ZM25.607 40.9833C24.9656 42.6472 23.6216 46.9057 22.8027 46.6769C22.1002 46.4805 21.6725 43.244 22.6631 40.0586C23.1605 38.4551 24.2252 36.5392 24.8506 35.7954C25.8572 34.5985 26.9655 34.2073 27.2346 34.6929C27.5764 35.3114 26.0099 39.9396 25.607 40.9833ZM36.7035 46.6119C36.4315 46.7635 36.1814 46.8578 36.0664 46.7851C35.9806 46.731 36.1784 46.5315 36.1784 46.5315C36.1784 46.5315 37.5661 44.9435 38.113 44.2213C38.4315 43.8007 38.7995 43.3013 39.2009 42.7446C39.2038 42.8003 39.2053 42.8559 39.2053 42.91C39.2024 44.812 37.4744 46.0955 36.7035 46.6119ZM45.2517 44.5399C45.0481 44.3868 45.083 43.8904 45.7506 42.3425C46.0124 41.7348 46.6117 40.7127 47.6502 39.7354C47.771 40.1375 47.8437 40.5225 47.8422 40.8813C47.8291 43.275 46.2234 44.1687 45.2517 44.5399Z" fill="#304FFE"/>
</g>
<defs>
<clipPath id="clip0">
<rect width="64" height="64" fill="white"/>
</clipPath>
</defs>
</svg>
