<svg width="56" height="64" viewBox="0 0 56 64" fill="none" xmlns="http://www.w3.org/2000/svg">
<path d="M47.9091 20.4035V43.4491L28.0956 55.0349L27.9164 55.1959V63.8091L28.0956 63.976L56 48.0455V15.9329L55.7364 15.8691L47.8695 20.2161L47.9091 20.4035" fill="#0026FF"/>
<path d="M8.21844 43.6378L28.0956 55.0347V63.9759L0 47.9825V15.9958L0.288312 15.9528L8.13247 20.4601L8.21844 20.7182V43.6378Z" fill="#1A3BF8"/>
<path d="M8.21844 20.7186L0 15.9962L28.0319 0.0027771L56 15.9333L47.9091 20.4038L28.0319 9.19582L8.21844 20.7186Z" fill="#304FFE"/>
<path d="M27.7546 41.0021L27.5393 40.785V32.1314L27.7546 32.0216L27.8068 31.8082L35.3132 27.4805L35.5429 27.5314V36.4478L27.7546 41.0021" fill="#0026FF"/>
<path d="M19.8362 36.7256V27.4674L20.0539 27.4568L27.6896 31.8486L27.7546 32.0216V41.002L19.8362 36.7256" fill="#1A3BF8"/>
<path d="M27.6246 22.9128L19.8362 27.4673L27.7546 32.0216L35.5429 27.5313L27.6246 22.9128" fill="#304FFE"/>
<path d="M18.0622 46.6472L17.8472 46.4302V37.7763L18.0622 37.6666L18.1147 37.4533L25.6209 33.1255L25.8506 33.1763V42.0927L18.0622 46.6472Z" fill="#0026FF"/>
<path d="M10.1441 42.3707V33.1121L10.3615 33.1015L17.9972 37.4936L18.0622 37.6666V46.6471L10.1441 42.3707" fill="#1A3BF8"/>
<path d="M17.9325 28.5579L10.1441 33.1121L18.0622 37.6666L25.8505 33.1764L17.9325 28.5579" fill="#304FFE"/>
<path d="M38.1391 46.8609L37.9238 46.6439V37.99L38.1391 37.8804L38.1914 37.667L45.6978 33.3394L45.9275 33.3902V42.3065L38.1391 46.8609" fill="#0026FF"/>
<path d="M30.2208 42.5845V33.3258L30.4384 33.3152L38.0741 37.7074L38.1391 37.8803V46.8609L30.2208 42.5845" fill="#1A3BF8"/>
<path d="M38.0092 28.7717L30.2208 33.326L38.1391 37.8804L45.9275 33.3902L38.0092 28.7717Z" fill="#304FFE"/>
<path d="M28.4467 52.506L28.2317 52.289V43.635L28.4467 43.5254L28.4992 43.3118L36.0055 38.9843L36.235 39.0351V47.9515L28.4467 52.506" fill="#0026FF"/>
<path d="M20.5286 48.2296V38.9709L20.7461 38.9603L28.382 43.3523L28.4467 43.5254V52.506L20.5286 48.2296" fill="#1A3BF8"/>
<path d="M28.317 34.4165L20.5286 38.9709L28.4467 43.5253L36.235 39.0351L28.317 34.4165Z" fill="#304FFE"/>
<path d="M27.7546 28.729L27.5393 28.5117V19.8581L27.7546 19.7484L27.8068 19.5348L35.3132 15.2074L35.5429 15.2582V24.1745L27.7546 28.729" fill="#0026FF"/>
<path d="M19.8362 24.4525V15.1939L20.0539 15.1833L27.6896 19.5752L27.7546 19.7484V28.7289L19.8362 24.4525Z" fill="#1A3BF8"/>
<path d="M27.6246 10.6395L19.8362 15.194L27.7546 19.7485L35.5429 15.2582L27.6246 10.6395Z" fill="#304FFE"/>
<path d="M18.0622 34.3735L17.8472 34.1565V25.5029L18.0622 25.3931L18.1147 25.1797L25.6209 20.8521L25.8506 20.9029V29.8193L18.0622 34.3735Z" fill="#0026FF"/>
<path d="M10.1441 30.0972V20.8388L10.3615 20.8282L17.9972 25.2201L18.0622 25.3931V34.3736L10.1441 30.0972" fill="#1A3BF8"/>
<path d="M17.9325 16.2844L10.1441 20.8389L18.0622 25.3931L25.8505 20.9029L17.9325 16.2844Z" fill="#304FFE"/>
<path d="M38.1391 34.5876L37.9238 34.3705V25.7168L38.1391 25.607L38.1914 25.3936L45.6978 21.0659L45.9275 21.1167V30.0333L38.1391 34.5876" fill="#0026FF"/>
<path d="M30.2208 30.3111V21.0528L30.4384 21.0422L38.0741 25.4341L38.1391 25.607V34.5875L30.2208 30.3111Z" fill="#1A3BF8"/>
<path d="M38.0092 16.4983L30.2208 21.0528L38.1391 25.607L45.9275 21.1168L38.0092 16.4983Z" fill="#304FFE"/>
<path d="M28.4467 40.2325L28.2317 40.0155V31.3616L28.4467 31.252L28.4992 31.0386L36.0055 26.7109L36.235 26.7617V35.678L28.4467 40.2325" fill="#0026FF"/>
<path d="M20.5286 35.956V26.6975L20.7461 26.6869L28.382 31.079L28.4467 31.2519V40.2325L20.5286 35.956" fill="#1A3BF8"/>
<path d="M28.317 22.143L20.5286 26.6975L28.4467 31.252L36.235 26.7617L28.317 22.143" fill="#304FFE"/>
</svg>
