<svg width="54" height="54" viewBox="0 0 54 54" fill="none" xmlns="http://www.w3.org/2000/svg">
<path d="M47.5664 43.875V37.125H34.9102V33.75H28.582V30.375H47.5664V16.875H6.43359V30.375H25.418V33.75H19.0898V37.125H6.43359V43.875H0V54H15.9258V43.875H9.59766V40.5H19.0898V43.875H34.9102V40.5H44.4023V43.875H38.0742V54H54V43.875H47.5664ZM25.418 20.25H28.582V23.625H25.418V20.25ZM15.9258 23.625H12.7617V20.25H15.9258V23.625ZM22.2539 23.625H19.0898V20.25H22.2539V23.625Z" fill="white"/>
<path d="M47.5664 0H6.43359V13.5H47.5664V0ZM15.9258 10.125H12.7617V6.75H15.9258V10.125ZM22.2539 10.125H19.0898V6.75H22.2539V10.125ZM28.582 10.125H25.418V6.75H28.582V10.125Z" fill="white"/>
</svg>
