<svg width="64" height="64" viewBox="0 0 64 64" fill="none" xmlns="http://www.w3.org/2000/svg">
<path d="M19.6923 0H24.6153V17.4545H19.6923V0Z" fill="#304FFE"/>
<path d="M49.2308 0H54.1539V17.4545H49.2308V0Z" fill="#304FFE"/>
<path d="M39.3846 23.2727H44.3077V40.7273H39.3846V23.2727Z" fill="#304FFE"/>
<path d="M49.2308 46.5454H54.1539V64H49.2308V46.5454Z" fill="#304FFE"/>
<path d="M59.077 46.5454H64V64H59.077V46.5454Z" fill="#304FFE"/>
<path d="M59.077 0H64V17.4545H59.077V0Z" fill="#304FFE"/>
<path d="M0 23.2727H4.92308V40.7273H0V23.2727Z" fill="#304FFE"/>
<path d="M9.84619 23.2727H14.7693V40.7273H9.84619V23.2727Z" fill="#304FFE"/>
<path d="M19.6923 46.5454H24.6153V64H19.6923V46.5454Z" fill="#304FFE"/>
<path d="M0 0V17.4545H14.7692V0H0ZM9.84615 11.6364H4.92308V5.81818H9.84615V11.6364Z" fill="#304FFE"/>
<path d="M29.5385 0V17.4545H44.3077V0H29.5385ZM39.3846 11.6364H34.4615V5.81818H39.3846V11.6364Z" fill="#304FFE"/>
<path d="M19.6923 23.2727V40.7273H34.4615V23.2727H19.6923ZM29.5384 34.9091H24.6153V29.0909H29.5384V34.9091Z" fill="#304FFE"/>
<path d="M29.5385 46.5454V64H44.3077V46.5454H29.5385ZM39.3846 58.1818H34.4615V52.3636H39.3846V58.1818Z" fill="#304FFE"/>
<path d="M0 46.5454V64H14.7692V46.5454H0ZM9.84615 58.1818H4.92308V52.3636H9.84615V58.1818Z" fill="#304FFE"/>
<path d="M49.2308 23.2727V40.7273H64V23.2727H49.2308ZM59.0769 34.9091H54.1539V29.0909H59.0769V34.9091Z" fill="#304FFE"/>
</svg>
