<svg width="64" height="64" viewBox="0 0 64 64" fill="none" xmlns="http://www.w3.org/2000/svg">
<path d="M48.1536 0.3984C48.4568 0.5456 57.3285 4.744 61.6611 6.7952C63.0919 7.472 64 8.9024 64 10.4736V53.4496C64 55.0192 63.0983 56.448 61.6724 57.128C57.5624 59.0928 49.3956 62.9936 48.852 63.2496C48.452 63.4384 47.4003 64 46.5486 64C45.455 64 44.721 63.4944 44 62.832L47.8697 50.7376V2.744L44.2339 0.928C45.0114 0.1744 46.0889 0 46.726 0C47.3099 0 47.7858 0.2208 48.1536 0.3984Z" fill="#304FFE"/>
<path d="M7.98101 47.4139L48 17.4996V3.27923C48 1.23651 45.3395 0.436097 44.259 1.41735C43.2105 2.36716 1.03051 40.0906 1.03051 40.0906C-0.410179 41.3958 -0.32854 43.6555 1.20179 44.8585C1.20179 44.8585 3.32119 46.7959 4.08796 47.3337C5.26612 48.1593 6.81405 48.2536 7.98101 47.4139Z" fill="#304FFE"/>
<path d="M7.98101 15.5992L48 46.231V60.3315C48 62.2575 45.7269 63.857 44.1598 62.4873L1.03051 23.0859C-0.410179 21.7516 -0.32854 19.4414 1.20179 18.2116C1.20179 18.2116 3.32119 16.231 4.08796 15.6812C5.26612 14.8372 6.81405 14.7407 7.98101 15.5992Z" fill="#0026FF"/>
</svg>
